<?xml version="1.0" standalone="no"?>
<!DOCTYPE svg PUBLIC "-//W3C//DTD SVG 1.1//EN" "http://www.w3.org/Graphics/SVG/1.1/DTD/svg11.dtd" >
<svg xmlns="http://www.w3.org/2000/svg">
<metadata></metadata>
<defs>
<font id="goudy_bookletter_1911regular" horiz-adv-x="464" >
<font-face units-per-em="2048" ascent="1510" descent="-538" />
<missing-glyph horiz-adv-x="512" />
<glyph horiz-adv-x="2048" />
<glyph horiz-adv-x="2048" />
<glyph unicode="&#xd;" horiz-adv-x="682" />
<glyph unicode=" "  horiz-adv-x="512" />
<glyph unicode="&#x09;" horiz-adv-x="512" />
<glyph unicode="&#xa0;" horiz-adv-x="512" />
<glyph unicode="!" horiz-adv-x="664" d="M222 1252q0 30 26 46q140 82 150 82q20 0 20 -52v-48q0 -198 -21 -402t-40 -308t-31 -138q-10 -32 -36 -32q-30 0 -30 60v36q-2 72 -4 145t-5 134t-6 118t-6 104t-5 88t-4 71t-4 52t-2 32zM234 72q0 46 31 74t75 28q42 0 73 -30t31 -74q0 -42 -30 -72t-74 -30t-75 29 t-31 75z" />
<glyph unicode="&#x22;" horiz-adv-x="796" d="M78 980v4q0 10 120 366q42 114 110 114q34 0 54 -23t20 -55q0 -28 -28 -80q-26 -46 -77 -136l-85 -150t-36 -64q-16 -20 -38 -20q-18 0 -29 13t-11 31zM416 980v4q0 10 122 366q36 114 110 114q32 0 52 -23t20 -55t-26 -80q-28 -48 -78 -137t-84 -149t-38 -64 q-16 -20 -38 -20q-18 0 -29 13t-11 31z" />
<glyph unicode="#" horiz-adv-x="1130" d="M110 360q0 30 6 42t28 12h178q6 0 6 4q40 280 40 294q0 10 -14 10h-206q-38 0 -38 46q0 48 38 48h220q20 0 20 16q32 218 50 366q6 42 8 46q10 16 48 16h2q40 0 40 -28q0 -8 -28 -204t-28 -202q0 -10 16 -10h212q18 0 20 14l60 416q10 14 34 14h6h14q32 0 32 -24 q0 -10 -27 -205t-27 -205t10 -10h150q40 0 40 -54q0 -40 -32 -40h-176q-8 0 -12 -12q-4 -38 -14 -110t-17 -121t-7 -53q0 -12 14 -12h208q36 0 36 -46t-36 -46h-214q-22 0 -26 -22q-52 -364 -54 -368q-10 -20 -44 -20q-42 0 -42 28q0 8 25 187t25 183q0 12 -18 12h-140 q-62 0 -75 -3t-15 -13q-52 -372 -54 -376q-10 -18 -50 -18t-40 28q0 6 26 185t26 183q0 14 -20 14h-150q-34 0 -34 38zM422 424q0 -10 16 -10h210q20 0 22 16q38 280 38 282q0 10 -14 10h-214q-16 0 -20 -14q-4 -38 -14 -110t-17 -121t-7 -53z" />
<glyph unicode="$" horiz-adv-x="986" d="M32 272q0 48 29 81t73 33q38 0 62 -26t24 -70q0 -12 -4 -34t-4 -36q0 -70 53 -102t105 -32q10 0 10 8v532q0 26 -18 28q-134 28 -206 127t-72 211q0 124 80 212t198 98q18 2 18 16v44q0 40 42 40h2q42 0 42 -40v-38v-6q0 -12 14 -12q128 -14 209 -81t81 -137 q0 -40 -23 -65t-61 -25q-44 0 -69 32t-34 72t-34 78t-67 46h-4q-12 0 -12 -10v-356q0 -6 -1 -18t-1 -14q0 -12 3 -19t12 -13t17 -9t29 -11t39 -14q190 -82 240 -250q20 -66 20 -124q0 -162 -100 -260t-242 -122q-18 -4 -18 -24v-142q0 -38 -40 -38q-42 0 -42 38v142 q0 20 -18 20q-142 4 -237 92t-95 178zM202 1032q0 -66 42 -114t78 -64t48 -16q10 0 10 10v154v170q0 54 -6 54q-42 0 -107 -52t-65 -142zM462 154q0 -64 10 -64h4q22 0 67 25t91 89t46 146q0 80 -47 143t-91 87t-62 24q-16 0 -16 -18q0 -148 -1 -286t-1 -146z" />
<glyph unicode="%" horiz-adv-x="1678" d="M84 708q0 202 90 313t222 111q106 0 194 -87t88 -277q0 -186 -86 -303t-226 -117q-106 0 -194 86t-88 274zM206 776q0 -80 25 -176t75 -140q42 -34 90 -34q124 0 148 174q12 72 12 112q0 132 -51 237t-139 105q-46 0 -80 -29t-50 -75t-23 -89t-7 -85zM386 -212q0 8 8 24 q808 1380 814 1386q16 20 48 20q18 0 39 -9t21 -27q0 -10 -8 -22q-824 -1388 -826 -1390q-18 -22 -46 -22q-18 0 -34 12t-16 28zM1002 170q0 202 90 313t220 111q106 0 195 -87t89 -277q0 -186 -87 -303t-225 -117q-106 0 -194 86t-88 274zM1122 242l2 -4q0 -80 24 -176 t74 -138q38 -34 90 -34q124 0 150 172q10 60 10 114q0 130 -50 235t-138 105q-46 0 -80 -28t-51 -74t-24 -88t-7 -84z" />
<glyph unicode="&#x26;" horiz-adv-x="1694" d="M62 502q0 60 13 116t33 96t39 68t37 46l16 20q4 8 4 14v2q0 6 -22 33t-43 77t-21 110q0 138 109 245t251 107q44 0 90 -10t87 -40t41 -76q0 -40 -28 -66t-64 -26q-42 0 -87 51t-91 51q-74 0 -146 -67t-72 -169q0 -60 29 -115t51 -55q4 0 36 13t84 27t106 14q76 0 127 -31 t51 -83t-54 -84t-134 -32h-2q-50 0 -95 12t-71 24t-30 12q-6 0 -11 -4t-8 -8t-7 -8l-2 -4q-54 -98 -54 -214q0 -72 26 -141t81 -136t160 -111t245 -50h36q118 0 206 34t134 90t67 114t21 116q0 106 -58 176t-154 70q-88 0 -155 -60t-67 -136q0 -52 33 -89t85 -37q22 0 48 10 t26 24q0 8 -8 12t-19 6t-25 10t-24 22q-14 20 -14 44q0 30 23 52t57 22q46 0 83 -34t37 -84q0 -62 -52 -109t-126 -47q-82 0 -140 60t-58 146q0 80 53 153t145 119q94 46 269 74t237 56q74 32 125 95t51 149q0 94 -59 156t-135 62q-62 0 -62 -18l16 -22q18 -22 18 -50 q0 -36 -24 -60t-60 -24q-40 0 -66 29t-26 71q0 64 54 108t126 44q116 0 209 -98t93 -244q0 -164 -127 -281t-301 -121q-30 0 -30 -16q0 -2 17 -30t35 -82t18 -116v-4q0 -208 -180 -364t-430 -156q-252 0 -424 163t-172 387zM360 854q0 -6 6 -12q56 -40 168 -40q86 0 86 48 q0 52 -88 52q-48 0 -89 -8t-62 -19t-21 -21z" />
<glyph unicode="'" horiz-adv-x="458" d="M78 984v2q0 8 120 364q42 114 110 114q34 0 54 -23t20 -55q0 -28 -28 -80q-26 -46 -77 -136l-85 -150t-36 -64q-16 -20 -38 -20q-18 0 -29 15t-11 33z" />
<glyph unicode="(" horiz-adv-x="742" d="M92 536q0 250 119 491t335 415q38 28 62 28q18 0 31 -11t13 -27q0 -26 -30 -50q-168 -150 -271 -367t-103 -477q0 -246 96 -464t270 -376q34 -34 34 -54q0 -18 -13 -30t-31 -12q-22 0 -48 22q-212 168 -338 407t-126 505z" />
<glyph unicode=")" horiz-adv-x="742" d="M92 -350q0 18 30 48q168 152 271 367t103 475q0 248 -95 466t-269 376q-34 28 -34 54q0 18 13 30t31 12t48 -22q212 -166 337 -407t125 -507q0 -250 -120 -490t-336 -414q-40 -30 -60 -30q-18 0 -31 12t-13 30z" />
<glyph unicode="*" horiz-adv-x="686" d="M28 1000q0 40 47 69t94 46t47 31q0 12 -28 22t-63 18t-63 32t-28 60q0 30 25 51t53 21q36 0 87 -54t73 -54q10 0 10 14q0 8 -9 54t-9 74q0 92 82 92q80 0 80 -94q0 -34 -12 -83t-12 -51q0 -4 4 -4q8 0 69 50t103 50q30 0 55 -23t25 -57q0 -38 -48 -65t-96 -43t-48 -26 q0 -12 29 -20t65 -16t65 -32t29 -64q0 -34 -24 -57t-54 -23q-32 0 -66 27t-58 54t-32 27q-14 0 -14 -18q0 -28 9 -80t9 -62q0 -42 -30 -61t-56 -19t-50 20t-24 66q0 24 7 68t7 56q0 22 -12 22q-10 0 -69 -45t-103 -45q-34 0 -50 26t-16 46z" />
<glyph unicode="+" horiz-adv-x="1434" d="M108 518v26q0 46 50 46h502v510q0 40 40 40h30q48 0 48 -52v-498h510q42 0 42 -40v-28q0 -32 -15 -40t-41 -8h-496v-506q0 -46 -44 -46h-30q-44 0 -44 48v504h-504q-48 0 -48 44z" />
<glyph unicode="," d="M80 92q0 48 37 80t87 32q74 0 128 -68t54 -166q0 -120 -79 -196t-129 -76q-38 0 -38 36q0 16 11 25t35 24t42 31q52 48 52 96q0 36 -22 54t-50 21t-62 16t-50 37q-16 22 -16 54z" />
<glyph unicode="-" d="M24 368v30q0 20 7 29t33 27q88 62 200 140q130 92 144 92q32 0 32 -80q0 -30 -36 -58q-46 -32 -89 -62t-72 -51t-55 -40t-42 -30t-30 -21l-21 -15t-14 -8t-11 -4t-8 -1q-38 0 -38 52z" />
<glyph unicode="." d="M110 88q0 52 36 85t86 33t86 -35t36 -85t-34 -85t-86 -35q-50 0 -87 35t-37 87z" />
<glyph unicode="/" horiz-adv-x="890" d="M12 -354q0 8 772 1524q10 18 32 18q18 0 40 -9t22 -29q0 -6 -350 -670q-266 -530 -402 -804q-24 -48 -26 -50q-10 -8 -26 -8q-62 0 -62 28z" />
<glyph unicode="0" horiz-adv-x="972" d="M24 432q0 194 135 332t323 138q186 0 319 -138t133 -332t-133 -331t-321 -137q-186 0 -321 136t-135 332zM160 440q0 -146 96 -250t230 -104q128 0 224 98t96 248t-97 253t-229 103t-226 -103t-94 -245z" />
<glyph unicode="1" horiz-adv-x="728" d="M54 836q0 32 30 32q6 0 38 -2t90 -3t124 -1t123 1t89 3t38 2q28 0 28 -44q0 -36 -96 -40q-36 -2 -58 -4q-28 -2 -28 -32v-624q0 -40 36 -42q22 -2 45 -3t38 -2t31 -2t24 -3t18 -4t14 -6t8 -9t5 -12t1 -17q0 -36 -36 -36q-2 0 -16 1t-38 3t-54 4t-69 3t-77 1t-76 -1 t-68 -3t-53 -4t-37 -3t-16 -1q-28 0 -28 42q0 36 36 40q30 2 74 6q58 2 70 8t12 34v630q0 28 -30 32q-158 8 -162 8q-30 8 -30 48z" />
<glyph unicode="2" horiz-adv-x="920" d="M52 616q0 110 80 181t202 71q144 0 251 -85t107 -213q0 -58 -30 -118t-57 -92t-103 -106t-104 -104q-8 -12 -8 -14q0 -18 22 -18q46 0 150 8q78 6 133 39t101 131q8 22 26 22q36 0 36 -26q0 -6 -76 -262q-2 -8 -6 -13t-7 -8t-10 -5t-10 -2t-13 -1t-14 -1q-80 -4 -221 -10 t-239 -11t-106 -5q-56 0 -56 38q0 10 4 17t17 17t29 19t48 30t64 47q146 116 254 252q50 66 50 118q0 94 -88 162t-184 68q-76 0 -121 -44t-49 -102q0 -54 -30 -54h-2q-40 0 -40 74z" />
<glyph unicode="3" horiz-adv-x="736" d="M54 694q0 86 51 150t139 64q50 0 118 -22t132 -81t64 -137q0 -54 -30 -126t-60 -122t-30 -52q0 -10 15 -14t52 -15t73 -33q116 -64 116 -234q0 -200 -88 -312q-50 -66 -137 -99t-177 -33q-110 0 -172 51t-62 97q0 36 27 59t63 23q34 0 60 -22t42 -49t54 -49t94 -22 q96 0 141 78t45 186q0 232 -250 232q-30 0 -54 -2t-28 -2q-16 0 -25 9t-9 19q0 6 1 10t6 9t12 10t21 17t30 28q132 128 132 250q0 72 -43 135t-145 63q-108 0 -108 -78v-28l2 -16q0 -26 -36 -26t-36 84z" />
<glyph unicode="4" horiz-adv-x="914" d="M48 28q0 18 34 66q516 742 534 766q14 18 34 18q28 0 28 -36l-2 -668q0 -22 20 -22h34q36 0 60 2t26 2q40 0 40 -26q0 -8 -8 -62t-14 -60q-8 -8 -26 -8h-114q-18 0 -18 -14v-342q0 -24 -20 -24h-82q-22 0 -22 24v336q0 20 -16 20h-454q-34 0 -34 28zM224 146 q0 -10 12 -10h296q20 0 20 26v436q0 16 -10 16q-4 0 -12 -8q-306 -452 -306 -460z" />
<glyph unicode="5" horiz-adv-x="780" d="M78 402q0 6 32 121t64 229l32 112q10 26 36 26q12 0 169 -49t173 -49t34 18t33 42t19 28q8 6 16 6q10 0 21 -8t11 -20q0 -6 -94 -224q-8 -22 -26 -22q-14 0 -172 49t-162 49h-2q-16 0 -23 -20t-39 -142v-4q-2 -4 -2 -6q0 -12 14 -12h28q148 0 257 -111t109 -291 q0 -164 -96 -304q-54 -80 -144 -149t-132 -69q-14 0 -25 9t-11 23t19 29t47 30t69 52t75 89q74 120 74 244q0 140 -83 227t-191 87q-34 0 -68 -12l-36 -10q-26 0 -26 32z" />
<glyph unicode="6" horiz-adv-x="988" d="M68 464q0 294 205 531t513 293q4 2 14 2q18 0 30 -15t12 -31q0 -24 -34 -38q-324 -106 -502 -382l-2 -2v-4q0 -6 8 -6h6q6 2 16 3t22 3t29 3t33 1q202 0 348 -137t146 -339q0 -168 -109 -286t-281 -118q-180 0 -317 142t-137 380zM198 444q0 -180 94 -300t226 -120 q102 0 169 72t67 194q0 98 -35 199t-117 180t-192 79q-114 0 -163 -90t-49 -214z" />
<glyph unicode="7" horiz-adv-x="920" d="M72 478q0 2 9 63t18 167t11 216q0 38 38 38q6 0 11 -1t9 -5t6 -8t4 -13t3 -17t4 -23t5 -27q4 -24 30 -24h618q44 0 44 -38v-2q0 -10 -118 -364q-136 -412 -232 -748q-30 -102 -38 -119t-28 -19q-12 -2 -38 -2h-2h-12q-58 0 -58 28q0 10 228 676q132 364 132 374 q0 40 -60 50q-114 10 -204 10q-170 0 -222 -14q-24 -4 -32 -20t-34 -104q-14 -46 -24 -76q-10 -32 -34 -32q-10 0 -22 8t-12 26z" />
<glyph unicode="8" horiz-adv-x="914" d="M32 314q0 140 142 254q36 28 80 62q42 32 42 38t-10 12q-96 66 -157 157t-61 191q0 128 103 234t257 106q142 0 240 -76t98 -214q0 -102 -61 -197t-157 -149q-6 -4 -6 -12q0 -2 6 -8q146 -66 234 -168t88 -214q0 -148 -134 -262t-308 -114q-164 0 -280 108t-116 252z M184 310q0 -112 78 -185t188 -73q102 0 176 64t74 162t-81 186t-213 154q-20 12 -32 12q-18 0 -61 -40t-86 -119t-43 -161zM208 1052q0 -132 97 -217t157 -85q16 0 30 14q122 112 122 266q0 100 -59 171t-149 71h-2q-82 -2 -139 -66t-57 -154z" />
<glyph unicode="9" horiz-adv-x="1042" d="M66 464q0 174 124 293t298 119q196 0 337 -151t141 -367q0 -240 -180 -464t-468 -312q-52 -14 -64 -14q-20 0 -29 18t-9 32q0 24 34 34q90 28 173 75t138 93t96 90t60 70t19 30q0 6 -6 6l-10 -4l-25 -5l-35 -7t-46 -7t-50 -3q-206 0 -352 142t-146 332zM216 512 q0 -164 99 -303t267 -139q92 0 137 38t67 108q22 76 22 144q0 174 -108 299t-248 125q-92 0 -164 -68t-72 -204z" />
<glyph unicode=":" horiz-adv-x="466" d="M134 88q0 52 35 85t85 33t86 -35t36 -85q0 -48 -35 -84t-87 -36q-50 0 -85 35t-35 87zM134 722q0 52 35 86t85 34t86 -36t36 -86q0 -48 -35 -84t-87 -36q-50 0 -85 35t-35 87z" />
<glyph unicode=";" d="M130 92q0 48 37 80t87 32q72 0 126 -68t54 -166q0 -120 -78 -196t-130 -76q-14 0 -26 10t-12 26t11 25t35 24t42 31q54 52 54 96v2q0 44 -34 59t-82 26t-68 41q-16 18 -16 54zM134 722q0 52 35 86t85 34t86 -36t36 -86q0 -48 -35 -84t-87 -36q-50 0 -85 35t-35 87z" />
<glyph unicode="&#x3c;" horiz-adv-x="1376" d="M106 472v38q0 22 38 36q1074 392 1080 392q48 0 48 -78q0 -28 -40 -40l-902 -330l916 -332q26 -10 26 -36q0 -24 -14 -49t-46 -25q-16 0 -1070 386q-36 12 -36 38z" />
<glyph unicode="=" horiz-adv-x="1434" d="M108 670v28q0 46 48 46h1130q42 0 42 -42v-26q0 -52 -54 -52h-1118q-48 0 -48 46zM110 364v30q0 44 48 44h1130q42 0 42 -40v-30q0 -32 -14 -40t-40 -8h-1120q-46 0 -46 44z" />
<glyph unicode="&#x3e;" horiz-adv-x="1376" d="M106 122q0 26 28 36l914 332l-902 330q-40 12 -40 40q0 78 48 78q6 0 1080 -392q38 -14 38 -36v-38q0 -26 -36 -38q-1056 -386 -1070 -386q-32 0 -46 25t-14 49z" />
<glyph unicode="?" horiz-adv-x="778" d="M30 1272q0 92 132 120q90 20 166 20q178 0 270 -96t92 -206q0 -70 -35 -131t-85 -109l-100 -96t-85 -116t-35 -146q0 -10 1 -25t1 -21q0 -38 -16 -55t-36 -17q-56 0 -56 112q0 74 28 143t68 123t80 106t68 115t28 127q0 88 -52 151t-126 63q-44 0 -76 -24t-47 -52 t-40 -52t-59 -24q-38 0 -62 26t-24 64zM202 88q0 52 37 85t87 33t86 -35t36 -85q0 -48 -35 -84t-87 -36q-50 0 -87 35t-37 87z" />
<glyph unicode="@" horiz-adv-x="2048" d="M180 380v2q0 86 19 175t67 198t151 211t249 174q220 112 444 112q294 0 479 -187t185 -459q0 -254 -148 -438t-332 -184q-54 0 -94 16t-59 38t-30 44t-16 38t-7 16l-10 -10q-52 -64 -124 -109t-146 -45q-80 0 -135 56t-55 142q0 134 141 323t273 269q86 50 154 50 q22 0 40 -4t20 -4q16 0 31 32t19 34q10 8 28 8q46 0 46 -34q0 -8 -21 -75t-57 -209t-64 -304q-10 -44 -10 -80q0 -52 30 -75t68 -23q66 0 143 42t125 110q104 144 104 384v2q0 262 -165 409t-411 147q-200 0 -374 -93t-282 -271t-108 -402q0 -302 187 -495t489 -193 q136 0 251 36t171 82q30 18 38 18q26 0 26 -24q0 -34 -84 -80t-162 -70q-128 -40 -276 -40h-2q-346 2 -576 202t-230 538zM770 208q0 -56 27 -79t59 -23q36 0 97 30t103 80q6 8 16 18l13 13t7 10t6 13t4 14q100 434 100 438q0 22 -22 22q-68 0 -191 -119t-191 -293 q-28 -66 -28 -124z" />
<glyph unicode="A" horiz-adv-x="1680" d="M18 30q0 10 1 17t4 13l5 10t9 7t9 4t13 3t14 3t18 3t19 2q48 6 72 25t46 73q144 322 312 656q296 560 306 574q4 4 12 10q22 16 50 16q54 0 86 -78l294 -680q224 -542 228 -548q22 -32 59 -42t64 -14t31 -24q4 -16 4 -28q0 -44 -42 -44l-34 4q-34 2 -91 5t-111 3 q-66 0 -120 -3t-85 -6t-37 -3q-42 0 -42 34q0 10 1 18t4 15t4 11t9 8t12 5t16 3t19 3t25 3t30 4q42 8 42 40q0 30 -49 183t-105 279q-8 20 -36 20h-482q-32 0 -46 -24q-70 -130 -125 -269t-55 -173q0 -36 23 -47t81 -17q18 0 26 -2q44 -4 44 -50q0 -44 -44 -44q-6 0 -35 3 t-80 6t-111 3q-34 0 -68 -1t-60 -3t-46 -4t-32 -3t-14 -1q-42 0 -42 42zM610 730q0 -10 12 -10h420q18 0 18 16t-79 200t-101 222q-8 14 -22 14q-18 0 -38 -36q-210 -396 -210 -406z" />
<glyph unicode="B" horiz-adv-x="1154" d="M34 46q0 24 15 30t73 12q18 2 28 4q14 2 21 5t14 12t7 25v1120q0 38 -21 49t-75 15h-10q-36 0 -36 52q0 36 36 36q2 0 14 -1t35 -1h49q62 0 179 10t177 10q222 0 340 -82q126 -92 126 -236q0 -94 -54 -178t-140 -138l-6 -6q0 -2 8 -6q120 -22 202 -122t82 -234 q0 -136 -78 -239t-182 -149q-102 -46 -246 -46q-48 0 -140 6t-140 6q-34 0 -110 -2t-124 -2h-4q-12 0 -19 2t-14 14t-7 34zM368 168q0 -22 3 -34t17 -25t42 -17q60 -8 96 -8q162 0 276 87t114 241q0 102 -59 189t-183 113q-66 14 -172 14h-104q-30 0 -30 -32v-528zM368 842 q0 -26 22 -26h92h26q216 0 286 130q30 60 30 116q0 42 -14 85t-46 87t-95 72t-147 28q-114 0 -144 -24q-10 -8 -10 -26v-4v-438z" />
<glyph unicode="C" horiz-adv-x="1432" d="M38 686q0 150 62 290t166 240q220 210 522 210h2q110 0 203 -27t144 -55t55 -28q16 0 28 34t32 40q4 0 12 1t10 1q22 0 26 -24l14 -104q14 -106 28 -214t14 -116q0 -34 -42 -34q-38 0 -44 13t-14 83q-10 76 -54 134q-70 88 -178 145t-240 57q-222 0 -385 -168t-163 -440 q0 -282 168 -475t408 -193q180 0 329 110t205 292q10 28 30 28q34 0 34 -24q-46 -318 -52 -332q-10 -34 -46 -34h-2h-56q-24 0 -35 -4t-30 -18t-31 -20q-180 -104 -380 -104q-142 0 -278 56t-240 156q-104 102 -163 240t-59 284z" />
<glyph unicode="D" horiz-adv-x="1452" d="M20 58q0 12 2 19t9 12t14 8t22 4t27 2t36 1t42 2q34 2 45 19t11 55v1036q0 50 -27 62t-107 14h-34q-38 0 -38 48q0 42 46 42h372q400 0 594 -90q166 -78 278 -232t112 -358q0 -258 -180 -452t-414 -238q-72 -12 -182 -12h-580q-48 0 -48 58zM410 190q0 -38 16 -55t58 -25 q66 -12 130 -12q244 0 424 147t180 403q0 152 -64 293t-182 229q-174 126 -426 126q-86 0 -111 -12t-25 -52v-1042z" />
<glyph unicode="E" horiz-adv-x="1182" d="M18 36q0 22 16 32t80 34q36 14 60 22q46 16 46 80v1068q0 22 -10 28t-46 12q-18 2 -44 4t-39 4t-27 7t-20 15t-6 28q0 46 40 46h942q34 0 44 -34q8 -38 23 -106t26 -115t11 -51q0 -30 -42 -30q-32 0 -58 36q-90 158 -102 172q-18 18 -58 18h-386q-40 0 -51 -20t-11 -58 v-308q0 -46 40 -46h314q22 0 36 3t28 19t14 46v64q0 44 54 44q58 0 58 -58v-378q0 -58 -58 -58q-54 0 -54 44v110q0 46 -54 46h-282q-22 0 -36 -2t-31 -9t-25 -25t-8 -46v-470q0 -22 3 -35t18 -26t43 -17q90 -14 192 -14q68 0 168 12t126 32q18 14 72 111t70 107q12 6 20 6 q14 0 25 -12t11 -34v-2q0 -18 -62 -292q-4 -24 -17 -32t-45 -8h-704q-92 0 -171 -12t-83 -12q-24 0 -37 23t-13 37z" />
<glyph unicode="F" horiz-adv-x="1106" d="M20 1348q0 62 38 62q6 0 28 -3t61 -5t83 -2q34 0 154 3t178 3h388h10q56 0 68 -50q4 -20 17 -76t22 -97t9 -47q0 -20 -12 -33t-30 -13q-34 0 -98 118q-20 32 -30 52q-16 26 -30 34t-42 8h-378q-26 0 -40 -12t-16 -25t-2 -37v-342q0 -30 30 -30h342q8 0 13 1t10 3t7 4t5 8 t5 11t4 16t3 20t4 26t5 31q8 56 48 56q20 0 34 -12t14 -30q0 -6 -2 -31t-4 -68t-2 -93q0 -52 2 -95t4 -68t2 -29q0 -54 -56 -54q-8 0 -14 1t-11 5t-9 8t-6 12l-4 16t-4 22t-3 25t-3 31t-4 36q-2 30 -36 30h-334q-20 0 -31 -10t-12 -20t-1 -28v-508q0 -24 3 -36t22 -25 t59 -15h42h35t29 -1t25 -2l18 -2t14 -5t9 -8t6 -11t2 -17v-20q0 -42 -36 -42l-38 4q-40 2 -106 5t-132 3q-42 0 -85 -1t-75 -3t-58 -4t-41 -3t-17 -1q-48 0 -48 46q0 12 2 21t7 15t9 9t17 5t21 3t28 2t34 3q38 4 49 19t11 45v1086q0 12 -1 20t-4 14t-6 10t-11 7t-13 5t-18 3 t-21 1t-27 1t-31 1q-48 0 -48 44z" />
<glyph unicode="G" horiz-adv-x="1414" d="M32 724q0 308 201 515t487 207q84 0 164 -20t127 -44t84 -47t41 -23h8q22 0 53 39t37 41q10 6 26 6q28 0 28 -28v-56q0 -58 2 -118t6 -104t7 -79t5 -55t2 -22q0 -32 -58 -32q-28 0 -34 19t-21 74t-57 113q-78 106 -196 172t-248 66q-82 0 -159 -32t-146 -98t-111 -187 t-42 -279q0 -192 52 -334t137 -216t171 -108t174 -34q116 0 218 48t120 84q6 12 6 36v230q0 40 -26 52t-108 18q-36 2 -58 4q-58 4 -58 48q0 46 46 46q6 0 33 -2t74 -4t103 -2h4q58 0 108 2t78 4t34 2q26 0 39 -13t13 -29q0 -34 -51 -52t-57 -42q-2 -6 -2 -22v-346 q0 -40 -28 -40q-12 0 -33 21t-29 21q-12 0 -28 -16q-180 -158 -420 -158q-290 0 -504 227t-214 547z" />
<glyph unicode="H" horiz-adv-x="1560" d="M28 1352q0 16 12 35t36 19q6 0 37 -1t85 -2t118 -1h6q66 0 121 1t87 2t38 1q32 0 38 -42q0 -4 1 -10t1 -8q0 -24 -21 -31t-91 -11q-28 0 -44 -2q-46 -2 -46 -60v-338q0 -30 26 -30h692q36 0 36 38v302q0 72 -44 88q-18 8 -59 9t-64 9t-23 38q0 48 50 48q6 0 33 -1t74 -2 t103 -1q40 0 82 1t74 3t57 3t40 2t17 1q38 0 38 -42q0 -12 -2 -21t-9 -16t-14 -11t-21 -7t-25 -4t-33 -4t-38 -5q-54 -6 -54 -58v-1076v-10q0 -62 56 -66q12 0 31 -1t29 -2t23 -3t20 -5t13 -8t9 -13t3 -20q0 -52 -42 -52q-2 0 -16 1t-37 3t-53 4t-68 3t-76 1t-76 -1t-67 -3 t-51 -4t-36 -3t-16 -1q-34 0 -34 40q0 12 1 19t4 14t5 10t10 6t14 5t19 3t24 2t32 2t37 3q40 2 51 20t11 58v554q0 24 -28 24h-698q-30 0 -30 -36v-554q0 -18 3 -28t26 -23t69 -17q4 0 27 -2t35 -4t25 -12t13 -26q0 -58 -32 -58q-2 0 -15 1t-37 3t-53 4t-67 3t-76 1t-78 -1 t-69 -3t-52 -4t-37 -3t-16 -1q-42 0 -42 56q0 38 90 42q30 2 50 4q34 2 44 19t10 47v1084q0 16 -4 27t-9 18t-18 11t-19 5t-27 4t-29 3q-6 2 -28 3t-32 4t-20 12t-10 25z" />
<glyph unicode="I" horiz-adv-x="660" d="M26 54q0 24 17 30t81 10q44 2 74 4q44 2 44 58v1064q0 6 1 17t1 13q0 26 -16 32t-72 8q-30 0 -48 2q-46 4 -46 44q0 56 44 56l34 -2q34 -2 90 -5t112 -3q58 0 106 2t75 4t33 2q34 0 34 -38q0 -10 -1 -17t-2 -13t-5 -10l-7 -7t-11 -5t-13 -4t-17 -3t-20 -2t-25 -2t-29 -3 q-32 -2 -32 -34v-1106q0 -48 36 -52q20 -2 44 -3t38 -1t29 -2t23 -4t15 -6t10 -12t3 -18q0 -60 -40 -60q-2 0 -16 1t-39 3t-55 4t-70 3t-80 1t-80 -1t-71 -3t-55 -4t-39 -3t-17 -1q-32 0 -36 46q-2 6 -2 20z" />
<glyph unicode="J" horiz-adv-x="646" d="M-168 -276q0 42 26 71t66 29q34 0 61 -21t42 -47t39 -47t54 -21q70 0 104 126q18 66 18 132v1272q0 14 -3 24t-6 17t-13 12t-17 8t-24 5t-28 3t-35 3t-40 4q-46 6 -46 44q0 54 46 54q2 0 16 -1t38 -2t54 -3t69 -3t77 -1h8q64 0 118 2t85 4t37 2q34 0 34 -40q0 -14 -2 -24 t-8 -16t-11 -10t-18 -7t-23 -3t-31 -2t-37 -4q-54 -4 -54 -70v-1100q0 -120 -50 -228t-130 -186q-18 -18 -52 -45t-95 -58t-105 -31q-70 0 -117 50t-47 108z" />
<glyph unicode="K" horiz-adv-x="1338" d="M24 1360q0 18 15 34t45 16q6 0 35 -3t80 -5t111 -2h2q60 0 111 2t79 5t34 3q32 0 46 -18t14 -36q0 -28 -28 -36t-71 -8t-59 -8q-30 -16 -30 -68v-444q0 -34 26 -34q16 0 54 42q42 46 143 159t163 183t66 78q16 20 16 44q0 30 -21 43t-46 13t-46 10t-21 34q0 42 46 42 q6 0 34 -1t76 -2t106 -1h12q54 0 100 1t72 2t32 1q58 0 58 -42q0 -26 -27 -37t-78 -19t-77 -18q-22 -10 -45 -26t-35 -28t-36 -39t-32 -35q-356 -384 -362 -394q-4 -8 -4 -14q0 -16 16 -32q556 -586 566 -592q4 -4 12 -10q36 -24 79 -30t59 -22q14 -18 14 -32q0 -16 -15 -31 t-45 -15q-10 0 -37 4t-59 4h-50t-39 1t-27 1t-23 3t-16 5t-16 9t-13 14t-18 19q-138 160 -314 362q-150 174 -178 204t-42 30h-2q-28 0 -28 -42v-432q0 -12 1 -21t3 -17t7 -13t8 -9t13 -7t16 -5t22 -3t25 -2t32 -2t37 -3q44 -6 44 -44q0 -58 -40 -58q-2 0 -16 1t-38 3t-54 4 t-70 3t-78 1t-77 -1t-69 -3t-54 -4t-38 -3t-16 -1q-36 0 -36 46q0 12 3 21t10 15t13 9t18 5t19 3t23 2t22 1q52 4 72 23t20 77v1018q0 14 -2 26t-3 21t-7 16t-8 12t-13 9t-15 6t-20 4t-21 3t-27 3t-30 2q-58 4 -58 50z" />
<glyph unicode="L" horiz-adv-x="1152" d="M22 1338q0 50 40 50q8 0 36 -1t81 -3t115 -2h16q66 0 122 1t88 3t38 2q22 0 28 -13t6 -41q0 -48 -46 -48q-20 0 -43 -1t-35 -1h-27t-23 -1t-16 -4t-12 -7t-7 -11t-4 -15t-1 -20v-1038q0 -66 54 -66h392h6q76 0 112 56q10 16 45 92t41 82q12 16 30 16q10 0 22 -3t26 -14 t14 -29q0 -16 -40 -290q-2 -14 -5 -22t-16 -15t-35 -7q-6 0 -54 1t-128 3t-180 4t-232 3t-260 1h-108q-34 0 -34 32q0 26 17 35t79 21q12 2 18 4q46 12 46 66v6v1076q0 12 -1 19t-4 13t-8 9t-11 4t-15 2t-20 1h-25h-30q-52 4 -52 50z" />
<glyph unicode="M" horiz-adv-x="2042" d="M36 32q0 14 3 23t10 16t14 10t23 6t27 5t35 4t40 4t28 7t18 10t10 18t5 20t3 26t2 27q52 630 52 916q0 24 -24 52q-2 2 -26 31t-40 44t-52 32t-78 17q-40 6 -40 38q0 20 7 31t13 12t16 1h294q36 0 52 -26l388 -648l238 -380q12 -24 36 -24q18 0 28 22l556 1038 q10 18 36 18h298q10 0 15 -1t10 -12t5 -31q0 -16 -5 -26t-20 -16t-31 -9t-46 -10t-58 -15q-50 -12 -50 -60q4 -340 7 -574t4 -309t1 -113v-14q0 -34 2 -49t18 -31t50 -20q14 -2 35 -3t31 -2t24 -3t19 -6t12 -10t9 -15t2 -21q0 -20 -12 -32t-30 -12l-38 4q-38 2 -101 5 t-125 3q-40 0 -80 -1t-70 -3t-55 -4t-39 -3t-16 -1q-38 0 -38 48q0 30 22 39t70 13q32 2 51 6t38 14t28 31t9 53v444q0 310 -6 328q-2 12 -14 12q-14 0 -28 -24q-78 -126 -205 -357t-221 -407t-108 -194q-20 -24 -46 -24q-36 0 -72 74q-100 206 -229 434t-211 360t-92 138 q-2 2 -6 2q-8 0 -8 -10q-12 -216 -12 -426q0 -174 8 -366q4 -58 16 -68q20 -14 67 -14t80 -11t33 -49q0 -46 -36 -46q-2 0 -16 1t-37 3t-51 4t-67 3t-75 1t-75 -1t-67 -3t-51 -4t-37 -3t-16 -1q-38 0 -38 44z" />
<glyph unicode="N" horiz-adv-x="1636" d="M18 1342q0 52 46 52h252q50 0 82 -38l320 -372l188 -210q376 -408 392 -418q4 -4 8 -4q14 0 14 20q0 24 2 69t3 82t1 69q0 276 -20 610q-2 60 -28 76t-104 24q-46 6 -46 44q0 18 14 33t46 15q4 0 29 -1t70 -3t97 -2t95 2t68 3t29 1q44 0 44 -46q0 -16 -4 -26t-16 -15 t-19 -6t-27 -2t-28 -1q-52 -4 -71 -32t-21 -110q-8 -348 -8 -532q0 -152 2 -282t4 -203t2 -89q0 -98 -42 -98q-24 0 -100 86l-424 484q-450 500 -454 500l-8 -8q-28 -420 -28 -728v-58q0 -82 16 -106t78 -28q76 0 124 -14q26 -12 26 -54q0 -38 -34 -38q-2 0 -16 1t-37 3 t-53 4t-68 3t-76 1q-60 0 -120 -3t-96 -5l-36 -4q-42 0 -42 40q0 44 30 54q12 4 55 7t74 16t45 43q8 20 38 574q12 236 20 388v8q0 28 -68 90q-80 80 -182 88q-38 0 -38 46z" />
<glyph unicode="O" horiz-adv-x="1592" d="M36 722q0 310 223 531t533 221q324 0 544 -232t220 -552q0 -318 -215 -529t-519 -211q-150 0 -294 58t-254 164q-234 226 -238 550zM232 786q0 -136 37 -262t107 -228t184 -164t254 -62q94 0 184 32t172 97t133 183t51 272q0 162 -55 317t-171 257q-156 138 -368 138 q-98 0 -190 -35t-169 -102t-123 -182t-46 -261z" />
<glyph unicode="P" horiz-adv-x="1170" d="M28 36q0 8 1 15t2 12t5 9l7 7t10 5t12 3t16 2t20 2t25 2t30 3q34 4 45 17t11 39v1096q0 16 -1 25t-12 18t-31 9h-74q-14 0 -22 2t-17 15t-9 37q0 44 44 44h52q102 0 260 11t226 11q262 0 400 -124q118 -108 118 -266v-2q-2 -110 -60 -195t-148 -133q-148 -84 -460 -84 h-62q-26 0 -26 -32v-416q0 -36 13 -53t51 -19q182 -8 194 -12q28 -8 28 -46v-2q0 -48 -40 -48l-40 4q-40 2 -108 5t-134 3q-68 0 -136 -3t-108 -5l-40 -4q-42 0 -42 48zM394 712q0 -16 11 -20t63 -4q226 0 366 92t140 240q0 132 -123 220t-333 88q-80 0 -102 -6t-22 -26 v-584z" />
<glyph unicode="Q" horiz-adv-x="1540" d="M40 724q0 150 61 295t169 251q216 212 524 212q298 0 504 -204q108 -108 167 -252t59 -296q0 -208 -104 -397t-270 -303q-6 -6 -6 -10t6 -8q80 -56 170 -149t136 -123q86 -56 174 -56q16 0 29 1t15 1q24 0 24 -20q0 -26 -60 -54t-122 -28q-34 0 -65 6t-63 22t-52 27 t-52 39t-43 38t-44 44t-39 40q-178 178 -224 178l-46 -6q-48 -4 -92 -4q-154 0 -295 60t-243 164q-218 222 -218 532zM240 802q0 -182 71 -348t210 -277t313 -111q214 0 361 167t147 441q0 164 -55 323t-175 263q-144 122 -342 122q-212 0 -371 -155t-159 -425z" />
<glyph unicode="R" horiz-adv-x="1424" d="M28 1344q0 38 28 38h70q96 0 244 12t210 12q130 0 228 -35t149 -90t75 -113t24 -118q0 -132 -82 -224t-150 -116q-10 -6 -10 -10t4 -8q110 -128 187 -239t120 -183t71 -104q58 -66 110 -66q30 0 54 23t34 23q22 0 22 -24q0 -34 -51 -91t-129 -57q-104 0 -216 148 l-204 292q-174 244 -190 254q-10 8 -34 8h-150q-28 0 -28 -30v-474v-6q0 -60 52 -66q18 -2 42 -4t37 -3t30 -2t26 -3t20 -5t16 -7t9 -11t6 -15t2 -18q0 -44 -42 -44q-2 0 -17 1t-39 3t-55 4t-72 3t-81 1t-81 -1t-71 -3t-55 -4t-39 -3t-16 -1q-36 0 -36 56q0 8 1 14t4 10t6 7 t10 5t13 4t18 3t20 1t25 1t29 3q34 4 45 21t11 51v1058q0 46 -26 57t-146 31q-32 6 -32 34zM404 1272l2 -4v-482q0 -26 20 -31t114 -5q116 0 190 28q70 28 119 90t49 148q0 126 -104 219t-256 93q-94 0 -122 -22q-12 -8 -12 -32v-2z" />
<glyph unicode="S" horiz-adv-x="1006" d="M52 132q0 6 7 40t19 112t20 180q4 44 46 44q32 0 39 -18t17 -100q2 -26 4 -50t3 -34t1 -18t4 -15t6 -11t14 -19t22 -27q102 -136 264 -136q122 0 210 82t88 202q0 138 -120 226q-68 50 -206 83t-180 51q-120 48 -182 137t-62 195q0 140 104 243t262 103q74 0 133 -21 t92 -41t39 -20q12 0 35 41t51 41q14 0 24 -11t10 -27q0 -4 -2 -26t-5 -61t-3 -83t3 -82t5 -59t2 -25q0 -30 -36 -30h-2q-28 0 -42 21t-37 71t-63 96q-102 114 -224 114q-84 0 -142 -56t-58 -136q0 -110 106 -186q62 -46 202 -80t186 -54q116 -50 187 -149t71 -233 q0 -184 -130 -312t-318 -128q-184 0 -312 112q-32 28 -62 28q-10 0 -28 -3t-26 -3q-36 0 -36 32z" />
<glyph unicode="T" horiz-adv-x="1416" d="M24 1094v2q0 8 60 282q6 32 42 32h1194q34 0 42 -48q50 -260 50 -262q0 -18 -12 -32t-28 -14q-24 0 -46 40q-12 20 -26 45t-21 38t-16 30t-15 24t-12 16t-11 12t-11 7t-13 5l-14 2t-17 1h-302q-20 0 -31 -10t-12 -19t-1 -27v-1072q0 -32 19 -40t101 -14q42 -4 66 -6 q22 -2 29 -14t7 -44q0 -40 -34 -40l-40 4q-38 2 -105 5t-133 3q-42 0 -85 -1t-76 -3t-59 -4t-42 -3t-18 -1q-40 0 -40 52q0 32 17 40t79 12q34 2 54 4q42 4 55 22t13 54v1038q0 20 -2 30t-15 22t-37 12h-306q-38 0 -52 -9t-26 -33q-84 -166 -90 -174q-14 -16 -34 -16t-33 15 t-13 37z" />
<glyph unicode="U" horiz-adv-x="1548" d="M34 1362q0 50 42 50q6 0 32 -2t73 -4t101 -2h12q58 0 108 2t78 4t34 2q38 0 38 -54q0 -16 -4 -26t-17 -14t-24 -6t-37 -4t-44 -4q-66 -8 -66 -72v-640q0 -136 24 -230t102 -164q122 -112 368 -112q286 0 374 186q40 84 40 228v28q0 22 -1 64t-1 64v556q0 36 -6 57t-31 31 t-37 12t-64 8q-44 4 -44 46q0 46 38 46q4 0 28 -2t64 -4t88 -2t88 2t64 4t28 2q38 0 38 -54q0 -28 -22 -37t-47 -9t-47 -33t-22 -107q0 -4 -1 -12t-1 -10v-464q0 -16 1 -48t1 -48v-66q0 -66 -5 -117t-22 -117t-56 -122t-99 -98q-142 -100 -386 -100q-138 0 -249 30t-172 69 t-107 94t-61 88t-25 69q-26 94 -26 262q0 26 1 78t1 78v516q0 12 -1 21t-7 14t-8 9t-14 6t-15 3t-20 3t-21 2q-56 8 -56 50z" />
<glyph unicode="V" horiz-adv-x="1698" d="M32 1370q0 42 60 42q6 0 36 -2t82 -4t112 -2q58 0 107 2t76 4t33 2q38 0 38 -40q0 -34 -16 -43t-76 -17q-16 -2 -24 -4q-54 -6 -54 -52q0 -18 12 -42q96 -214 211 -439t184 -346t79 -133q8 -8 20 -8t22 18q242 438 410 892q12 36 12 46q0 44 -46 60q-18 6 -55 6t-57 9 t-20 41q0 52 44 52q6 0 33 -2t75 -4t102 -2q56 0 103 2t73 4t32 2q46 0 46 -56q0 -30 -24 -38t-65 -17t-67 -37q-22 -24 -79 -163t-197 -446t-330 -655q-24 -40 -52 -40t-52 40q-180 316 -317 568t-196 374t-98 205t-52 109t-31 38q-6 4 -33 16t-44 26t-17 34z" />
<glyph unicode="W" horiz-adv-x="2052" d="M26 1354q0 22 13 40t39 18q4 0 29 -2t70 -4t97 -2q50 0 94 2t69 4t29 2q38 0 38 -52q0 -26 -17 -36t-40 -8t-48 -2t-37 -18q-10 -12 -10 -26t6 -26q106 -336 320 -908q14 -36 30 -36q14 0 30 35t110 275q48 124 80 202q4 16 4 24v2q0 12 -136 404q-18 56 -33 64t-109 12 q-36 0 -36 46q0 48 48 48q6 0 33 -2t74 -4t103 -2h2q54 0 102 2t75 4t33 2q34 0 34 -46q0 -28 -15 -35t-73 -13q-64 -8 -64 -50q0 -6 4 -26q66 -200 152 -424t145 -365t73 -161q14 -18 24 -18h2q20 0 32 38q92 194 175 420t123 364t40 166q0 12 -2 19t-9 13t-13 9t-20 5 t-24 3t-31 3t-35 4q-42 4 -42 48q0 46 38 46q6 0 32 -2t73 -4t101 -2h2q52 0 99 2t73 4t32 2q34 0 34 -48q0 -26 -18 -37t-41 -11t-50 -10t-41 -36q-2 -4 -23 -65t-61 -171t-94 -249t-137 -335t-177 -396q-44 -100 -82 -100q-50 0 -88 110q-88 220 -178 454q-66 166 -72 166 t-10 -8q-70 -182 -160 -418q-82 -214 -99 -252t-31 -44h-2q-12 -8 -18 -8q-14 0 -24 7t-18 21t-14 26t-13 32t-11 30q-78 192 -149 380t-119 327t-83 246t-56 175t-23 74q-14 36 -62 38t-58 16q-10 10 -10 28z" />
<glyph unicode="X" horiz-adv-x="1360" d="M10 26q0 10 1 17t1 12t4 10t5 8t8 5t10 4t13 4l15 3t20 3t23 4q14 2 26 6t21 8t20 13t17 14t19 21t19 24t23 33t27 39q302 422 302 428q0 8 -326 528q-44 70 -70 83t-100 19q-52 4 -52 54q0 46 42 46q6 0 36 -2t84 -4t116 -2h6q62 0 113 2t80 4t35 2q20 0 30 -12t10 -48 q0 -22 -22 -30t-50 -7t-50 -11t-22 -40q0 -14 24 -62q224 -364 230 -366q4 0 8 4q30 42 63 88t53 74t42 58t34 48t25 37t19 30t12 23t9 20t4 16t1 18q0 14 -2 24t-10 17t-12 11t-18 6t-20 3t-25 2t-25 1q-54 4 -54 60q0 36 34 36q6 0 36 -2t84 -4t116 -2q64 0 117 2t84 4 t37 2q38 0 38 -38q0 -36 -18 -50t-42 -12t-62 -4t-66 -28q-24 -18 -68 -73t-60 -79q-266 -376 -266 -384q0 -10 352 -566q38 -60 60 -70t116 -20q54 -8 54 -58q0 -42 -36 -42q-2 0 -16 1t-39 3t-56 4t-72 3t-81 1t-80 -1t-71 -3t-55 -4t-39 -3t-17 -1q-38 0 -38 42t38 52 q12 2 84 12q46 8 46 46v4q0 20 -144 248q-72 114 -120 192q0 6 -6 6q-8 0 -282 -396q-22 -30 -22 -52q0 -30 21 -39t85 -15q12 -2 20 -2q56 -10 56 -54t-36 -44q-2 0 -14 1t-34 3t-48 4t-60 3t-68 1q-54 0 -107 -3t-85 -5l-32 -4q-30 0 -30 38z" />
<glyph unicode="Y" horiz-adv-x="1366" d="M22 1366q0 18 13 32t39 14q6 0 35 -2t80 -4t111 -2t110 2t78 4t34 2q38 0 38 -42q0 -10 -1 -18t-4 -14t-6 -10t-11 -7t-13 -4t-18 -3t-22 -2t-27 -1t-32 -3q-54 -6 -54 -46v-4q0 -14 98 -182q104 -182 194 -336q18 -30 28 -30q4 0 16 12q296 408 324 454q36 64 36 86 q0 32 -18 41t-66 11h-14q-32 2 -48 4t-30 15t-14 37q0 14 11 28t33 14q4 0 28 -2t65 -4t89 -2h6q48 0 90 2t64 4t28 2q30 0 44 -13t14 -29q0 -20 -15 -33t-43 -33t-48 -46l-298 -384q-34 -46 -69 -93t-53 -72t-37 -49t-26 -36t-15 -23t-9 -21t-2 -17t-1 -21v-398 q0 -30 22 -37t122 -11q50 -2 80 -4q46 -2 46 -48v-18q0 -38 -34 -38l-42 4q-40 2 -109 5t-137 3q-44 0 -89 -1t-79 -3t-61 -4t-43 -3t-18 -1q-52 0 -52 58q0 8 1 15t2 12t6 8t8 5t12 4t16 3t20 1t26 1t32 1t37 2l8 2h11t8 1t9 2t8 3t7 6t4 8t4 10t1 14v424q0 18 -4 33t-6 21 t-15 28t-19 30q-188 302 -326 524q-46 72 -50 80q-20 26 -60 29t-50 25q-8 12 -8 28z" />
<glyph unicode="Z" horiz-adv-x="1288" d="M32 44q0 16 18 38q408 576 864 1080q28 32 28 44q0 22 -28 22h-662q-18 0 -30 -1t-23 -5t-18 -6t-14 -14t-11 -17t-10 -25t-8 -31t-10 -41t-12 -48q-12 -44 -42 -44q-16 0 -29 12t-13 38q0 8 4 48t9 110t5 150v76q0 56 42 56q32 0 54 -48q18 -56 112 -56h892q50 0 50 -36 q0 -16 -106 -156q-48 -62 -78 -102l-298 -374q-226 -276 -326 -454q-12 -18 -12 -30q0 -32 37 -41t169 -17q98 -6 200 -6h44q134 0 200 21t102 103q12 32 28 117t22 97q14 20 38 20q16 0 33 -15t17 -43v-2q0 -38 -4 -70t-10 -72t-10 -70q-2 -30 -5 -80t-6 -71t-10 -48 t-21 -39t-38 -14h-1072h-4q-58 0 -58 44z" />
<glyph unicode="[" horiz-adv-x="774" d="M48 540q0 74 58 74q16 0 31 -7t17 -7q8 0 8 14v840q0 70 50 70q16 0 45 -18t79 -37t118 -19q60 0 119 15t95 31l34 14q10 0 18 -13t8 -21q0 -14 -28 -45t-86 -62t-124 -31q-12 0 -12 -14l2 -1584q0 -14 8 -18t23 -5t48 -11t69 -32q38 -24 67 -53t29 -45q0 -26 -24 -26 q-4 0 -39 18t-98 36t-131 18q-62 0 -116 -13t-84 -26t-36 -13q-32 0 -32 44v848q0 16 -8 16q-2 0 -18 -11t-32 -11q-58 0 -58 84zM256 -318q0 -10 8 -10q2 0 16 9t42 21t64 18q8 2 8 12v1598q0 10 -13 14t-46 13t-65 29q-4 4 -8 4q-6 0 -6 -10v-1698z" />
<glyph unicode="\" horiz-adv-x="480" d="M6 1220q0 16 25 31t39 15q20 0 30 -32q82 -410 177 -817t147 -611t52 -216q0 -18 -26 -35t-38 -17q-22 0 -22 22q-384 1658 -384 1660z" />
<glyph unicode="]" horiz-adv-x="774" d="M48 1476q0 10 7 22t17 12l36 -14q34 -16 93 -31t119 -15q68 0 118 19t79 37t45 18q50 0 50 -70v-840q0 -14 8 -14q2 0 17 7t31 7q60 0 60 -74q0 -84 -60 -84q-16 0 -32 11t-18 11q-8 0 -8 -16v-848q0 -44 -32 -44q-6 0 -36 13t-84 26t-116 13q-68 0 -131 -18t-98 -36 t-39 -18q-24 0 -24 26q0 16 29 45t67 53q36 22 69 32t48 11t23 5t8 18l2 1584q0 14 -12 14q-66 0 -124 31t-85 62t-27 45zM380 -268q0 -10 10 -12q36 -6 64 -18t41 -21t15 -9q8 0 8 10v1698q0 10 -6 10q-4 0 -8 -4q-22 -14 -43 -23t-35 -11t-25 -5t-16 -6t-5 -11v-1598z" />
<glyph unicode="^" horiz-adv-x="866" d="M104 992q0 16 14 40q220 372 238 396q18 22 42 32q14 6 30 6q10 0 18 -3t15 -6t15 -10t13 -11t13 -14t10 -13t9 -14t9 -13q64 -100 142 -226q92 -144 92 -166q0 -20 -15 -34t-35 -14q-10 0 -21 5t-19 10t-18 16t-15 17t-16 20t-13 18q-162 206 -164 210q-6 4 -14 4h-2 q-10 -2 -54 -54q-12 -16 -52 -64l-80 -100q-6 -6 -16 -19t-16 -19l-15 -15t-15 -14t-15 -8t-19 -3q-20 0 -33 14t-13 32z" />
<glyph unicode="_" horiz-adv-x="1078" d="M56 -94q0 50 28 50h914q28 0 28 -50v-4q0 -58 -28 -58h-914q-28 0 -28 54v8z" />
<glyph unicode="`" d="M16 1360q0 34 23 55t53 21h2q56 0 112 -86q64 -94 140 -208q76 -112 76 -130q0 -16 -12 -29t-28 -13h-4q-14 0 -29 13t-117 119q-94 94 -164 166q-52 52 -52 92z" />
<glyph unicode="a" horiz-adv-x="866" d="M60 706q0 60 97 121t217 61q38 0 78 -8t91 -28t86 -69t43 -119q4 -48 4 -74v-404q0 -36 14 -58t28 -27t28 -5q28 0 44 17t25 34t21 17q18 0 18 -26q0 -48 -44 -105t-114 -57q-26 0 -50 8t-40 21t-29 25t-21 22l-6 8q-2 0 -2 1t-2 1q-4 0 -6 -4t-14 -16t-34 -26 q-90 -56 -190 -56q-104 0 -169 66t-65 162v2q0 116 86 182q30 24 78 43t95 29t89 17t70 9l28 2q16 4 16 28v74q0 106 -48 164q-50 54 -120 54q-108 0 -176 -136q-18 -24 -44 -24q-32 0 -57 20t-25 54zM220 210q0 -76 42 -112q28 -26 88 -26q46 0 87 20t57 36t26 28 q12 16 12 46v50v84q0 38 -3 49t-17 11q-50 0 -125 -16t-119 -58q-48 -40 -48 -112z" />
<glyph unicode="b" horiz-adv-x="994" d="M8 1344q0 16 26 26q226 90 234 90q28 -4 28 -40q0 -68 -3 -328t-3 -284q0 -12 10 -12q4 0 38 21t99 42t141 21q180 0 289 -125t109 -327q0 -78 -18 -151t-83 -154t-171 -121q-108 -40 -228 -40q-54 0 -114 19t-86 19q-36 0 -64 -22t-38 -22q-32 0 -32 62q0 120 3 599 t3 599q0 28 -26 46q-14 8 -28 17t-23 14t-19 11t-15 10t-11 8l-9 6t-5 5t-3 6t-1 5zM282 134q0 -38 30 -50q96 -38 188 -38q156 0 252 97t96 251q0 166 -102 272t-240 106q-72 0 -147 -34t-75 -66v-524q0 -2 -1 -7t-1 -7z" />
<glyph unicode="c" horiz-adv-x="780" d="M34 404q0 210 122 341t318 131q108 0 184 -46t76 -106q0 -34 -24 -55t-58 -21q-44 0 -115 61t-133 61q-94 0 -164 -94t-70 -222q0 -146 93 -253t231 -107q54 0 99 17t68 38t46 38t37 17t24 -10t10 -24q0 -16 -12 -32q-54 -74 -142 -124t-196 -50q-176 0 -285 124 t-109 316z" />
<glyph unicode="d" horiz-adv-x="1010" d="M34 424q0 178 115 310t341 132h2q60 0 112 -7t80 -15l28 -8q16 0 16 18v344q0 6 -1 11t-2 9t-4 8t-5 6t-9 6t-12 7t-16 7t-20 8t-25 10t-30 12q-38 10 -38 32q0 12 18 24q256 124 264 124q24 0 24 -28q0 -20 -2 -105t-3 -234t-1 -325q0 -548 6 -602q0 -6 1 -9t3 -6t5 -5 t8 -3t9 -2t13 -1h16t19 -1t22 -1q40 0 40 -30q0 -14 -11 -22t-46 -23t-65 -33q-40 -22 -72 -45t-46 -34t-22 -11q-16 0 -16 22v66q0 6 -6 6l-12 -8q-10 -8 -30 -20t-47 -24t-68 -20t-85 -8q-198 0 -323 135t-125 333zM172 442q0 -174 116 -276t240 -102q62 0 121 25t71 63 q8 32 8 46v460q0 26 -22 48q-84 78 -218 78q-152 0 -234 -92t-82 -250z" />
<glyph unicode="e" horiz-adv-x="836" d="M46 422q0 208 110 334t268 126q102 0 196 -56t156 -140q16 -20 16 -44v-4q0 -18 -10 -32t-32 -25t-38 -17t-47 -16t-39 -12q-418 -144 -428 -150q-8 -4 -8 -12q0 -12 6 -40t27 -74t52 -85t89 -68t130 -29q140 0 244 100q28 28 46 28q34 0 34 -30q0 -12 -16 -32 q-64 -84 -160 -133t-202 -49q-68 0 -133 24t-126 74t-98 144t-37 218zM182 478q0 -16 10 -16q4 0 191 73t193 75q18 10 18 24q0 26 -70 81t-146 55q-90 0 -143 -78t-53 -214z" />
<glyph unicode="f" horiz-adv-x="598" d="M20 774q0 62 44 62q26 2 60 2q32 0 38 2t6 16v2q6 250 88 394q58 100 167 161t207 61q74 0 111 -33t37 -73q0 -32 -23 -56t-63 -24q-28 0 -83 25t-87 25q-104 0 -157 -126t-53 -320v-18q0 -20 3 -26t17 -6h200q46 0 46 -42v-2q0 -62 -54 -62h-192q-18 0 -18 -18v-586v-8 q0 -46 40 -48q16 -2 36 -3t29 -1t20 -1t16 -4t10 -7t6 -11t1 -17q0 -44 -34 -44q-2 0 -12 1t-27 3t-39 4t-50 3t-56 1t-57 -1t-50 -3t-39 -4t-28 -3t-12 -1q-32 0 -32 50q0 20 13 26t57 12q18 2 28 4q6 0 11 2t8 6t5 6t3 8t1 8t1 10t1 10q8 104 8 586q0 14 -12 18t-58 4h-38 q-44 0 -44 36z" />
<glyph unicode="g" horiz-adv-x="900" d="M46 568q0 130 95 224t235 94q86 0 167 -36t91 -36q64 0 108 64q30 48 58 48t53 -27t25 -57q0 -36 -31 -62t-72 -43t-43 -19q-10 -10 -10 -16q0 -4 6 -20t12 -45t6 -63q0 -142 -99 -243t-241 -101q-40 0 -76 9t-44 9q-28 0 -60 -35t-32 -69q0 -54 87 -72t222 -22t193 -22 q92 -26 139 -89t47 -137q0 -46 -20 -92t-65 -90t-133 -72t-208 -28q-222 0 -311 81t-89 177q0 20 4 39t10 34t13 28t16 24t18 19t17 14t14 11t10 7l4 2q4 4 4 10q0 2 -19 14t-38 40t-19 68q0 98 114 190l2 2q2 2 2 6q0 8 -18 18t-49 39t-57 75q-38 68 -38 150zM170 -180 q0 -90 95 -146t239 -56q142 0 201 45t59 103q0 84 -82 122q-42 22 -98 29t-157 10t-177 11h-6q-14 0 -36 -22q-38 -38 -38 -96zM204 592q0 -118 60 -204t152 -86q82 0 132 65t50 161q0 114 -61 202t-155 88q-78 0 -128 -63t-50 -163z" />
<glyph unicode="h" horiz-adv-x="1052" d="M24 1302q0 22 34 40q226 130 234 130h2q32 0 32 -38l-2 -632q0 -14 10 -14q2 0 34 19t89 38t119 19q192 0 274 -186q32 -76 43 -171t17 -371q0 -28 10 -42t22 -17t44 -7q34 -4 34 -38q0 -44 -26 -44q-2 0 -12 1t-28 3t-39 4t-51 3t-58 1t-56 -1t-50 -3t-39 -4t-27 -3 t-12 -1q-22 0 -22 28v14q0 10 1 16t6 11t10 7t16 4t20 3t28 3t35 4q30 4 36 32t6 146q0 200 -25 289t-73 141q-74 74 -166 74q-62 0 -116 -33t-62 -67q-2 -8 -2 -28q0 -492 4 -506q6 -30 31 -42t52 -11t49 -9t22 -34q0 -42 -24 -42q-2 0 -12 1t-28 3t-40 4t-51 3t-57 1 q-30 0 -59 -1t-52 -3t-41 -4t-28 -3t-12 -1q-24 0 -24 40q0 24 12 30t62 16q22 4 34 17t13 22t3 31q10 310 10 562v8q0 454 -8 502q-4 26 -75 42t-71 44z" />
<glyph unicode="i" horiz-adv-x="496" d="M30 754q0 6 3 12t10 10t13 7t16 7t14 6q224 108 226 108h2q28 0 28 -34l-2 -66q-4 -66 -7 -177t-3 -221v-68q0 -190 6 -224t40 -38q60 -8 76 -14t16 -30q0 -44 -24 -44q-2 0 -12 1t-28 3t-40 4t-51 3t-57 1t-58 -1t-51 -3t-39 -4t-28 -3t-12 -1q-32 0 -32 34t13 40t89 16 q36 6 45 23t9 51v96v194t1 141t1 61q0 22 -15 31t-123 53q-26 10 -26 26zM212 1266q0 40 30 68t70 28t69 -28t29 -66q0 -42 -29 -70t-71 -28t-70 27t-28 69z" />
<glyph unicode="j" horiz-adv-x="474" d="M-74 -404q0 32 24 60t66 28q12 0 32 -3t30 -3q16 0 33 6t37 21t33 50t13 85q0 10 -1 57t-1 130v181q0 114 1 212t2 155t1 69q0 10 -1 16t-2 11t-7 11l-10 10t-16 11t-21 13t-29 18t-36 22q-18 8 -18 24q0 14 25 26t221 96q8 4 14 4q20 0 20 -34q0 -10 -1 -60t-2 -138 t-1 -192q0 -162 2 -301t4 -218t2 -97q0 -46 -30 -90q-28 -40 -66 -85t-112 -105t-128 -60q-34 0 -56 20t-22 50zM212 1236q0 42 29 70t71 28q40 0 69 -27t29 -67t-30 -69t-70 -29t-69 27t-29 67z" />
<glyph unicode="k" horiz-adv-x="928" d="M10 1350q0 20 42 34q194 86 202 86q22 0 22 -34v-968q0 -8 6 -8q8 0 12 8l61 61l48 48l35 35t27 28t17 20t10 17t4 15t2 18q0 34 -27 55t-27 31v22q0 26 44 26h118q60 0 111 2t80 3t35 1q30 0 30 -38q0 -24 -10 -32t-47 -12t-61 -10q-44 -12 -94 -48t-82 -68t-122 -124 q-14 -14 -14 -18q0 -8 238 -292q36 -42 58 -65t63 -47t87 -30q34 -4 34 -36q0 -42 -34 -42q-2 0 -13 1t-29 3t-41 4t-53 3t-60 1t-60 -1t-53 -3t-41 -4t-29 -3t-13 -1q-28 0 -28 34v2q0 26 15 37t34 10t34 7t15 28t-54 96t-103 138t-55 68q0 4 -8 4t-32 -26t-26 -34 q-2 -6 -2 -22v-212q0 -28 14 -34t80 -14q44 -10 44 -44t-28 -34q-4 0 -24 2t-56 4t-78 2t-78 -2t-57 -4t-25 -2q-36 0 -36 36q0 24 16 33t35 9t36 10t19 34v1104q0 32 -26 50q-90 62 -94 66z" />
<glyph unicode="l" horiz-adv-x="488" d="M22 1330v2q0 10 76 50q94 46 176 90q12 8 26 8q28 0 28 -38v-1296q0 -12 1 -20t3 -15t4 -11t9 -8t10 -6t14 -5t16 -4t22 -3t25 -4q34 -6 34 -42q0 -40 -24 -40q-2 0 -13 1t-29 3t-40 4t-52 3t-58 1t-56 -1t-50 -2t-39 -3t-27 -3t-12 -1q-30 0 -30 36v6q0 26 13 33t71 13 q36 4 47 23t11 55v1042q0 6 -1 11t-3 9t-3 7t-6 6t-8 5t-12 7t-13 7q-20 12 -43 25t-32 19t-19 13t-13 12t-3 11z" />
<glyph unicode="m" horiz-adv-x="1480" d="M46 32q0 22 17 30t37 8t39 12t21 40v508q0 26 -9 38t-51 44q-14 10 -22 16q-18 12 -18 24q0 10 10 19t60 39q54 34 96 60q34 18 38 18q18 0 18 -24v-78q0 -12 8 -12q2 0 32 23t83 45t107 22q28 0 54 -6t48 -16t41 -22t33 -24t24 -21t16 -15l6 -8q2 -2 8 -2t10 2t9 7 t23 17t44 28q102 60 198 60q90 0 166 -53t110 -169q24 -86 24 -240v-260q0 -14 1 -24t6 -17t7 -11t13 -8t16 -5l25 -5l30 -6q28 -4 28 -38q0 -40 -30 -40q-4 0 -26 3t-62 6t-84 3q-46 0 -85 -3t-62 -6t-27 -3q-12 0 -23 8t-11 26q0 28 13 34t83 20q42 6 42 56v284 q0 224 -84 298q-58 46 -128 46q-62 0 -124 -34t-62 -60l2 -6q0 -6 2 -18t4 -28t3 -39t1 -47v-394q0 -2 -1 -8t-1 -10v-2q0 -34 70 -40q18 -2 30 -4q40 -6 40 -40q0 -42 -26 -42q-2 0 -13 1t-29 3t-40 4t-52 3t-58 1t-58 -1t-52 -3t-40 -4t-28 -4h-12q-28 0 -28 44 q0 28 76 38q22 4 34 6q34 6 44 22t10 56v378q0 128 -66 178t-144 50q-58 0 -100 -27t-56 -53q-8 -20 -8 -54v-492q0 -10 1 -17t2 -12t4 -10t5 -8t9 -5t11 -4t15 -4t17 -3t21 -3t25 -4q28 -4 28 -44q0 -32 -26 -32l-26 4q-24 2 -65 5t-83 3q-40 0 -74 -2t-53 -4t-23 -2 q-28 0 -28 40z" />
<glyph unicode="n" horiz-adv-x="1020" d="M22 24q0 28 13 35t67 15q36 6 45 22t9 48v488q0 36 -10 49t-82 67q-12 12 -12 20v2q0 10 14 19t86 47q56 30 94 50q12 8 20 8q24 0 24 -30v-80q0 -2 -2 -8v-4q0 -8 6 -8h2q2 0 15 12t37 30t56 36t78 31t96 13h4q42 0 83 -11t88 -40t79 -91t40 -152q4 -34 4 -104v-39 t-1 -111t-1 -204v-4q0 -10 2 -19t3 -14t7 -10t9 -7t14 -5t16 -3t22 -2t25 -4q30 -4 30 -38q0 -40 -32 -40q-6 0 -28 3t-61 6t-83 3q-26 0 -52 -1t-45 -3t-35 -4t-26 -4h-10q-28 0 -28 40q0 22 12 28t64 14q18 4 30 6q20 4 27 13t7 35v318q0 150 -28 222q-30 68 -90 95 t-114 27q-78 0 -140 -48t-70 -84q-4 -16 -4 -28v-484v-6q0 -52 46 -58q90 -14 98 -22q12 -10 12 -34q0 -36 -26 -36q-2 0 -13 1t-29 3t-40 5t-51 4t-57 1t-56 -1t-49 -3t-37 -4t-26 -3t-12 -1q-34 0 -34 36z" />
<glyph unicode="o" horiz-adv-x="956" d="M44 418q0 206 131 336t311 130q184 0 306 -131t122 -335q0 -210 -127 -333t-309 -123q-192 0 -313 132t-121 324zM202 428q0 -160 78 -263t204 -103t208 103t82 245q0 160 -91 269t-211 109q-100 0 -185 -88t-85 -272z" />
<glyph unicode="p" horiz-adv-x="1010" d="M26 -426q0 6 1 11t4 8t5 6t9 6t12 4t16 4t20 4t25 5t28 6q44 8 44 56v946v4q0 32 -26 42q-28 12 -68 30q-52 22 -61 28t-9 14v2q0 8 90 60q72 42 130 76q6 4 12 7t9 6t6 4t7 1q16 0 16 -24v-120q0 -12 8 -12l26 28q26 28 82 61t126 43q16 2 48 2q168 0 277 -130t109 -312 q0 -202 -136 -328t-350 -126q-20 0 -40 1t-36 3t-28 4t-20 2l-8 2q-14 0 -14 -22v-282v-6q0 -48 46 -52q20 -2 47 -4t39 -3t28 -3t23 -6t14 -10t9 -15t2 -23q0 -30 -24 -30q-4 0 -29 2t-69 4t-94 2q-66 0 -131 -4t-103 -8l-38 -4q-34 0 -34 40zM324 152q0 -40 52 -64 q64 -32 136 -32q130 0 227 98t97 246q0 146 -97 254t-221 108q-76 0 -136 -44q-58 -40 -58 -126v-440z" />
<glyph unicode="q" horiz-adv-x="1074" d="M32 436q0 78 30 153t91 144t172 112t255 43q76 0 154 -13t80 -13q34 0 52 26t24 26q24 0 24 -114q0 -8 1 -26t1 -28v-1030q0 -44 13 -65t32 -27t67 -12q28 -6 28 -28q0 -44 -36 -44q-4 0 -18 1t-39 2t-55 1q-44 0 -88 -3t-76 -6t-57 -7t-40 -7t-17 -3q-36 0 -36 38 q0 6 1 12t4 10t7 7t10 6t12 4t16 3t17 4t21 4t24 4q60 12 60 82v354q0 14 -12 14q-4 0 -37 -20t-94 -39t-133 -19q-188 0 -323 133t-135 321zM180 478q0 -154 113 -263t267 -109q54 0 112 17t78 37q18 18 18 62q0 94 -6 480q0 40 -28 60q-94 60 -204 60q-144 0 -247 -100 t-103 -244z" />
<glyph unicode="r" horiz-adv-x="732" d="M24 22q0 18 8 27t16 12t31 6t37 7q38 8 38 48v544q0 12 -2 19t-11 16t-18 15t-35 24t-48 34q-6 6 -8 14q0 8 82 46q74 36 134 66q2 0 6 2q8 4 12 4q24 0 24 -42v-82q0 -10 6 -10q2 0 44 29t94 63t76 42t60 8q56 0 108 -25t52 -65v-2q0 -12 -8 -24t-14 -18t-20 -18 l-14 -12q-2 0 -21 -15t-33 -21t-30 -6q-24 0 -55 26t-67 26q-44 0 -94 -32t-64 -52q-8 -12 -8 -38v-490v-8q0 -58 50 -62q20 -2 54 -4q62 -4 79 -11t17 -35q0 -40 -28 -40q-2 0 -13 1t-31 3t-44 4t-57 3t-63 1q-32 0 -64 -1t-57 -3t-44 -4t-30 -3t-13 -1q-34 0 -34 34z" />
<glyph unicode="s" horiz-adv-x="692" d="M54 256q0 40 7 52t29 12t28 -18t8 -53t12 -57q18 -40 85 -80t147 -40q70 0 118 38t48 98q0 38 -17 67t-53 48t-58 28t-70 21l-48 10q-226 66 -226 250q0 96 81 169t213 73q28 0 51 -3t36 -5t15 -2q8 0 24 10t28 10q24 0 32 -38q6 -30 16 -84t17 -91t7 -41q0 -32 -48 -32 q-20 0 -29 15t-17 43t-18 42q-22 30 -71 55t-97 25q-54 0 -92 -30t-38 -78q0 -102 162 -148q20 -6 60 -15t62 -15t53 -18t55 -30t46 -44q62 -72 62 -162q0 -108 -85 -192t-227 -84q-78 0 -159 26t-123 76q-24 26 -24 70q0 32 -1 72t-1 50z" />
<glyph unicode="t" horiz-adv-x="680" d="M40 774q0 12 29 37t83 84t102 139q22 38 40 38q28 0 28 -34q0 -14 -1 -72t-1 -72q0 -40 40 -40h184q4 0 10 -1t8 -1q52 0 52 -38t-18 -60q-10 -10 -36 -10h-240q-20 0 -20 -20q0 -166 -1 -276t-2 -148t-1 -54q0 -152 106 -152q42 0 88 31t81 62t53 31q16 0 27 -12t11 -26 q0 -12 -14 -34q-162 -184 -286 -184q-74 0 -135 59t-71 189q-2 22 -2 66q0 50 4 243t4 211t-14 18h-66q-42 0 -42 26z" />
<glyph unicode="u" horiz-adv-x="1034" d="M14 816v6q0 26 22 28q204 12 214 12q20 0 20 -24v-420q0 -134 38 -212q28 -54 85 -95t131 -41q100 0 174 74q4 6 11 13t9 10t6 7t5 7t3 7t2 7v9v504q0 44 -40 56q-10 4 -96 18q-30 6 -30 34q0 30 28 34q66 2 119 4t74 3t36 1h23q30 0 30 -40v-642q0 -6 1 -9t4 -6t7 -5 l12 -6t18 -8t26 -12t34 -16t18 -24q0 -22 -9 -30t-27 -11t-66 -20t-104 -49q-12 -8 -22 -8q-28 0 -28 40v48q0 8 -6 8q-2 0 -17 -11t-40 -26t-57 -30t-78 -26t-94 -11q-126 0 -210 78t-102 218q-6 60 -6 126q0 38 1 177t1 151q0 38 -56 58q-10 4 -31 10t-27 12t-6 22z" />
<glyph unicode="v" horiz-adv-x="1002" d="M4 824q0 26 24 26q6 0 31 -1t69 -3t96 -2t96 2t69 3t31 1q28 0 28 -42q0 -18 -9 -27t-21 -9t-38 -1t-46 -5q-42 -4 -42 -36q0 -16 29 -96t89 -211t126 -245q16 -16 20 -16q10 0 10 10q70 122 118 258t63 208t15 98q0 6 -1 11t-5 9t-8 6t-11 4t-13 3t-17 2t-19 2t-22 2 t-24 1q-32 6 -32 36v10q0 28 24 28q4 0 25 -1t58 -3t81 -2t81 2t58 3t25 1q32 0 32 -38q0 -24 -14 -32t-33 -7t-39 -3t-28 -20q-4 -6 -12 -42q-48 -176 -117 -354t-116 -274t-63 -112q-16 -20 -40 -20q-34 0 -68 64q-114 202 -200 379t-121 259t-43 94q-12 16 -31 23t-32 7 t-23 11t-10 39z" />
<glyph unicode="w" horiz-adv-x="1540" d="M12 816q0 34 38 34q4 0 23 -1t53 -3t74 -2h6q38 0 72 2t53 3t23 1q24 0 24 -34q0 -40 -63 -42t-63 -32q0 -16 12 -40q98 -256 230 -514q8 -16 20 -16q6 0 11 4t7 7t2 5q58 88 121 211t65 147v2q0 10 -34 85t-42 87q-18 26 -46 37t-51 10t-40 6t-17 29q0 48 32 48 q6 0 33 -1t75 -3t104 -2t103 2t74 3t33 1q28 0 28 -30v-14q0 -20 -9 -24t-61 -8q-30 -2 -48 -4q-48 -4 -48 -42q0 -34 82 -208t174 -318q16 -28 34 -28t24 18q66 116 115 246t66 199t17 87q0 8 -1 15t-5 11t-7 8t-10 6t-13 3t-17 2t-19 2t-24 2t-28 1q-36 4 -36 42 q0 34 24 34q4 0 24 -2t57 -4t79 -2q44 0 81 2t58 4t25 2q30 0 30 -34q0 -16 -5 -26t-13 -13t-15 -5t-18 -2h-13q-36 -8 -51 -61t-87 -252t-212 -457q-28 -52 -58 -52q-24 0 -45 32t-77 134q-22 40 -34 64q-132 250 -136 252q-6 0 -82 -162q-144 -290 -154 -300 q-16 -20 -36 -20q-32 0 -60 54q-98 184 -178 362t-119 277t-41 101q-10 20 -27 27t-30 6t-23 8t-10 33z" />
<glyph unicode="x" horiz-adv-x="906" d="M18 32q0 32 43 40t51 14t20 22q236 312 238 320q0 6 -8 14q-236 294 -248 306q-20 18 -54 22q-38 4 -38 46q0 34 28 34q4 0 26 -1t60 -3t82 -2t83 2t61 3t26 1q24 0 24 -28v-4q0 -4 1 -11t1 -9q0 -14 -9 -18t-45 -8q-12 -2 -20 -2q-32 -4 -32 -28q0 -10 28 -50 q48 -62 92 -122q26 -32 30 -32t10 6q144 192 144 202q0 22 -50 24t-50 28q0 52 26 52q4 0 23 -1t52 -3t71 -2h6q40 0 74 2t53 3t23 1q26 0 26 -30q0 -20 -6 -29t-16 -12t-40 -7q-10 -2 -14 -2q-42 -6 -60 -18t-46 -46q-174 -230 -174 -232q0 -6 282 -364q6 -8 11 -14t10 -11 t8 -7t10 -4t10 -3t13 -3t14 -2q20 -4 20 -26q0 -48 -30 -48q-4 0 -25 2t-59 4t-82 2t-82 -2t-59 -4t-25 -2q-24 0 -24 34q0 22 9 31t43 13t50 8q24 8 24 26q0 4 -8 20q-188 234 -190 236h-2l-4 2q-8 0 -70 -84q-50 -70 -90 -122q-28 -36 -28 -52q0 -30 56 -35t64 -15 q4 -6 4 -22q0 -40 -26 -40q-4 0 -23 2t-52 4t-73 2q-38 0 -72 -2t-53 -5t-23 -3q-20 0 -20 42z" />
<glyph unicode="y" horiz-adv-x="958" d="M8 816q0 34 28 34q4 0 24 -1t57 -3t79 -2t79 2t58 3t25 1q28 0 28 -32q0 -8 -1 -13t-1 -9t-3 -7t-4 -6t-6 -4t-7 -2t-10 -2t-12 -2t-15 -2t-17 -1q-32 -4 -32 -28q0 -10 25 -77t80 -187t119 -240q0 -12 14 -12q6 0 10 4t6 9t4 7q168 402 168 482q0 12 -3 20t-7 13t-14 7 t-18 3t-26 1t-30 2q-38 4 -38 40t38 36q4 0 24 -1t57 -3t79 -2h2q42 0 77 2t55 3t24 1q24 0 24 -42q0 -22 -12 -27t-68 -11q-20 -2 -27 -14t-31 -76q-48 -136 -104 -272q-198 -484 -366 -738q-82 -126 -152 -126q-34 0 -57 22t-23 52q0 36 26 63t77 59t77 56q44 40 91 117 t47 117q0 52 -228 508q-94 184 -112 210q-12 18 -33 21t-33 10t-12 37z" />
<glyph unicode="z" horiz-adv-x="738" d="M24 48q0 16 28 60l416 564q14 14 14 26q0 30 -42 30h-244q-16 0 -23 -12t-15 -50q-4 -20 -6 -32q-10 -32 -36 -32q-36 0 -36 26q0 2 2 13t5 30t6 43t5 57t2 67v62q0 30 34 30h12q24 0 27 -38t29 -38h448q44 0 44 -30q0 -6 -12 -30q-150 -204 -320 -434 q-144 -194 -144 -204q0 -22 32 -22h296q6 0 18 -1t14 -1q22 0 30 14t16 64q4 28 8 46q10 32 36 32q48 0 48 -34q0 -2 -3 -17t-6 -42t-7 -61t-7 -80t-3 -92q0 -30 1 -55t1 -39v-18q0 -40 -62 -40q-34 0 -34 36v124q0 30 -34 30h-476q-62 0 -62 48z" />
<glyph unicode="{" horiz-adv-x="514" d="M92 524q0 4 12 10t30 19t36 34t30 60t12 89q0 78 -27 229t-27 235q0 146 67 210t151 64q50 0 50 -10q0 -2 -22 -13t-53 -42t-47 -77q-16 -48 -16 -96q0 -54 28 -182t28 -212q0 -86 -24 -162t-47 -117t-23 -43q0 -4 22 -37t44 -96t22 -141q0 -68 -29 -197t-29 -193 q0 -52 14 -97t33 -73t38 -47t33 -29l14 -10q0 -6 -34 -6q-86 0 -157 69t-71 221q0 82 33 220t33 200q0 40 -9 73t-21 55t-28 40t-29 26t-25 14l-10 8q-2 2 -2 4z" />
<glyph unicode="|" horiz-adv-x="312" d="M102 -378v1822q0 26 50 26h4q32 0 43 -5t11 -21v-1822q0 -28 -52 -28h-8q-48 0 -48 28z" />
<glyph unicode="}" horiz-adv-x="514" d="M94 1464q0 10 50 10q84 0 151 -64t67 -210q0 -84 -27 -235t-27 -229q0 -42 8 -76t20 -54t28 -36t28 -23t24 -11l10 -6q2 -2 2 -4q0 -8 -8 -10q-114 -60 -114 -212q0 -62 32 -200t32 -220q0 -152 -71 -221t-157 -69q-34 0 -34 6l14 10q14 10 33 29t38 47t33 73t14 97 q0 64 -29 193t-29 197q0 78 22 142t44 96t22 36t-8 20q-86 132 -86 302q0 84 28 212t28 182q0 50 -14 92t-34 65t-41 38t-35 23t-14 10z" />
<glyph unicode="~" horiz-adv-x="922" d="M50 396q0 4 20 38t50 78t50 64q58 62 136 62q60 0 153 -59t153 -59q50 0 95 28t75 62t32 34q8 4 12 4q10 0 29 -12t19 -26q0 -6 -15 -30t-44 -59t-65 -68t-85 -56t-97 -23q-74 0 -159 61t-137 61q-90 0 -176 -132q-4 -10 -14 -10q-8 0 -20 16t-12 26z" />
<glyph unicode="&#xa1;" horiz-adv-x="664" d="M222 1276q0 42 30 73t74 31t75 -29t31 -75t-30 -75t-74 -29t-75 30t-31 74zM250 18v48q0 196 21 402t39 306t30 140q10 32 34 32q34 0 34 -68v-26q2 -74 4 -146t5 -133t5 -119t5 -105t5 -88t5 -71t4 -52t3 -34v-10q0 -30 -26 -44q-140 -82 -148 -82q-20 0 -20 50z" />
<glyph unicode="&#xa8;" horiz-adv-x="522" d="M24 1266q0 40 29 68t69 28q42 0 71 -27t29 -67q0 -42 -29 -70t-71 -28t-70 27t-28 69zM302 1266q0 40 29 68t69 28q42 0 70 -27t28 -67q0 -42 -29 -70t-69 -28q-42 0 -70 27t-28 69z" />
<glyph unicode="&#xa9;" horiz-adv-x="1580" d="M62 680q0 300 211 516t517 216q304 0 517 -216t213 -516q0 -298 -211 -514t-521 -216q-298 0 -512 212t-214 518zM166 680q0 -262 185 -443t439 -181t440 180t186 446q0 252 -182 437t-446 185q-260 0 -441 -184t-181 -440zM310 656q0 196 141 337t343 141q76 0 134 -17 t88 -33t36 -16q4 0 16 23t34 23q20 0 24 -20q36 -252 36 -272q0 -36 -36 -36q-22 0 -30 14t-8 34t-8 50t-26 54q-104 126 -264 126q-138 0 -242 -105t-104 -279q0 -178 107 -300t257 -122q110 0 205 69t131 185q8 20 30 20t22 -20q-28 -170 -30 -200q-4 -38 -38 -38h-36 q-14 0 -19 -1t-17 -10t-24 -15q-114 -68 -244 -68q-200 0 -339 140t-139 336z" />
<glyph unicode="&#xab;" horiz-adv-x="746" d="M46 396q0 8 14 22q314 264 318 266q12 0 24 -14t12 -24q0 -8 -19 -30t-179 -204l-4 -4q-4 -6 -4 -10q0 -8 70 -88q68 -80 126 -148q8 -8 8 -16q0 -12 -12 -26t-24 -14q-8 0 -120 98q-108 94 -198 172q-12 8 -12 20zM334 396q0 12 14 22q78 66 180 154q132 112 140 112 q12 0 23 -13t11 -25q0 -8 -19 -30t-179 -204q-8 -8 -8 -14q0 -8 68 -88t126 -148q8 -6 8 -16q0 -12 -10 -26t-22 -14q-10 0 -140 114q-102 88 -180 156q-12 8 -12 20z" />
<glyph unicode="&#xac;" horiz-adv-x="1434" d="M108 518v26q0 46 50 46h1154q18 0 18 -18v-448q0 -40 -40 -40h-28q-50 0 -50 54v336h-1056q-48 0 -48 44z" />
<glyph unicode="&#xad;" d="M24 368v30q0 20 7 29t33 27q88 62 200 140q130 92 144 92q32 0 32 -80q0 -30 -36 -58q-46 -32 -89 -62t-72 -51t-55 -40t-42 -30t-30 -21l-21 -15t-14 -8t-11 -4t-8 -1q-38 0 -38 52z" />
<glyph unicode="&#xae;" horiz-adv-x="1062" d="M102 1114q0 180 124 306t302 126q180 0 306 -126t126 -306q0 -176 -126 -302t-306 -126q-176 0 -301 126t-125 302zM174 1114q0 -142 106 -247t248 -105q146 0 252 105t106 247q0 146 -105 252t-253 106q-144 0 -249 -106t-105 -252zM290 1356q0 18 18 18h24q36 0 88 5 t76 5q92 0 134 -41t42 -93q0 -50 -30 -84t-56 -44q62 -70 118 -164q24 -44 54 -44q8 0 16 8t16 8q12 0 12 -14t-19 -36t-49 -22q-44 0 -82 56l-136 186q-4 10 -16 10h-54q-4 0 -4 -6v-170l-2 -4q0 -16 44 -19t44 -27q0 -22 -20 -22l-30 2q-30 2 -64 2q-26 0 -47 -1t-33 -2 t-14 -1q-20 0 -20 24q0 12 6 16t34 8q4 2 8 2q16 0 16 20v380q0 18 -40 24q-10 2 -16 4q-18 0 -18 16zM436 1334l2 -2v-176q0 -10 42 -10q116 0 116 90q0 46 -31 78t-85 32q-44 0 -44 -12z" />
<glyph unicode="&#xb0;" horiz-adv-x="434" d="M24 1214q0 82 58 141t136 59q80 0 136 -60t56 -140q0 -82 -56 -140t-136 -58q-78 0 -136 58t-58 140zM106 1216q0 -52 33 -87t81 -35q50 0 81 36t31 84q0 50 -33 87t-81 37t-80 -36t-32 -86z" />
<glyph unicode="&#xb1;" horiz-adv-x="1434" d="M108 20v28q0 44 50 44h1130q42 0 42 -38v-30q0 -32 -15 -40t-41 -8h-1118q-48 0 -48 44zM108 618v30q0 44 50 44h502v396q0 32 40 32h30q28 0 37 -10t9 -32v-386h512q42 0 42 -40v-30q0 -32 -15 -40t-41 -8h-498v-392q0 -36 -42 -36h-30q-26 0 -35 9t-9 29v390h-504 q-48 0 -48 44z" />
<glyph unicode="&#xb4;" d="M30 1012q0 20 92 156q70 102 124 182q56 86 112 86q32 0 54 -21t22 -55q0 -40 -48 -92q-268 -274 -286 -288q-14 -10 -30 -10q-18 0 -29 13t-11 29z" />
<glyph unicode="&#xb6;" horiz-adv-x="1536" d="M54 604q0 180 68 341t175 271t239 174t262 64q52 0 99 -11t77 -27t52 -33t35 -28t15 -11q6 0 17 14t40 43t71 55q78 46 142 46q66 0 101 -38t35 -86q0 -52 -36 -88t-74 -36q-18 0 -32 12t-14 30q0 20 23 44t23 40t-14 29t-44 13q-64 0 -121 -51t-81 -105 q-126 -256 -126 -608v-8q2 -272 59 -494t131 -338q64 -96 118 -128q10 -6 40 -8t49 -11t19 -33t-23 -40t-53 -16h-10q-56 0 -118 60q-52 50 -116 174q-66 126 -106 270q-2 -2 -21 -19t-24 -21t-24 -17t-31 -18t-35 -15t-46 -14t-55 -9t-68 -7q-8 0 -22 -1t-20 -1 q-254 0 -415 185t-161 455zM406 656q0 -268 92 -444t238 -176q34 0 71 14t37 30q0 4 -10 31t-24 75t-28 111t-24 155t-10 190q0 130 16 250t38 200t44 139t38 93t16 38q0 12 -31 20t-57 8q-120 0 -210 -111t-140 -255q-56 -170 -56 -366v-2zM800 662q0 -120 20 -256t43 -218 t35 -82q8 0 29 28t31 52q-48 270 -48 460q0 104 11 203t27 166t32 118t27 80t11 31q0 20 -25 57t-39 37q-2 0 -10 -8q-144 -284 -144 -668z" />
<glyph unicode="&#xb7;" d="M110 532q0 52 36 86t86 34t86 -36t36 -86q0 -48 -34 -83t-86 -35q-50 0 -87 34t-37 86z" />
<glyph unicode="&#xb8;" horiz-adv-x="406" d="M38 -366q0 4 3 14t10 22t17 12l8 -2q8 -2 19 -4t24 -4t28 -4t25 -2q36 0 57 19t21 49q0 40 -41 70t-105 34q-10 0 -10 6q0 2 11 30t29 71t26 65h64q-4 -14 -13 -39t-15 -43l-6 -18q0 -6 8 -6h4q76 0 124 -41t48 -115q0 -64 -38 -110t-130 -46q-46 0 -99 10t-61 18t-8 14z " />
<glyph unicode="&#xbb;" horiz-adv-x="746" d="M46 646q0 14 12 26t24 12q8 0 316 -266q16 -10 16 -22t-12 -20q-310 -268 -320 -270q-12 0 -22 12t-10 26q0 10 106 134q52 60 86 100q10 10 10 20q0 6 -6 14l-192 212q-8 12 -8 22zM332 646q0 14 12 26t24 12q8 0 100 -78q116 -100 220 -188q12 -10 12 -22 q0 -14 -12 -20q-310 -268 -320 -270q-10 0 -21 13t-11 25q0 8 56 72q74 84 140 162q6 10 6 18t-6 16q-198 228 -200 234z" />
<glyph unicode="&#xbf;" horiz-adv-x="778" d="M30 268q0 70 35 131t85 109l100 96t85 116t35 146q0 10 -1 25t-1 21q0 38 17 56t37 18q56 0 56 -114q0 -90 -43 -176t-94 -143t-94 -137t-43 -158q0 -88 52 -150t126 -62q44 0 76 23t47 52t40 52t59 23q38 0 62 -26t24 -64q0 -92 -130 -120q-80 -18 -166 -18 q-178 0 -271 96t-93 204zM272 1292q0 48 36 85t88 37q50 0 86 -36t36 -88t-36 -85t-86 -33t-87 35t-37 85z" />
<glyph unicode="&#xc0;" horiz-adv-x="1680" d="M18 30q0 10 1 17t4 13l5 10t9 7t9 4t13 3t14 3t18 3t19 2q48 6 72 25t46 73q144 322 312 656q296 560 306 574q4 4 12 10q22 16 50 16q54 0 86 -78l294 -680q224 -542 228 -548q22 -32 59 -42t64 -14t31 -24q4 -16 4 -28q0 -44 -42 -44l-34 4q-34 2 -91 5t-111 3 q-66 0 -120 -3t-85 -6t-37 -3q-42 0 -42 34q0 10 1 18t4 15t4 11t9 8t12 5t16 3t19 3t25 3t30 4q42 8 42 40q0 30 -49 183t-105 279q-8 20 -36 20h-482q-32 0 -46 -24q-70 -130 -125 -269t-55 -173q0 -36 23 -47t81 -17q18 0 26 -2q44 -4 44 -50q0 -44 -44 -44q-6 0 -35 3 t-80 6t-111 3q-34 0 -68 -1t-60 -3t-46 -4t-32 -3t-14 -1q-42 0 -42 42zM590 1766q0 34 23 54t57 20q46 0 108 -48q302 -220 312 -234q8 -16 8 -26q0 -18 -12 -28t-28 -10h-2q-14 0 -382 176l-10 4l-12 6t-13 8t-15 11t-13 12t-11 15t-7 18t-3 22zM610 730q0 -10 12 -10h420 q18 0 18 16t-79 200t-101 222q-8 14 -22 14q-18 0 -38 -36q-210 -396 -210 -406z" />
<glyph unicode="&#xc1;" horiz-adv-x="1680" d="M18 30q0 10 1 17t4 13l5 10t9 7t9 4t13 3t14 3t18 3t19 2q48 6 72 25t46 73q144 322 312 656q296 560 306 574q4 4 12 10q22 16 50 16q54 0 86 -78l294 -680q224 -542 228 -548q22 -32 59 -42t64 -14t31 -24q4 -16 4 -28q0 -44 -42 -44l-34 4q-34 2 -91 5t-111 3 q-66 0 -120 -3t-85 -6t-37 -3q-42 0 -42 34q0 10 1 18t4 15t4 11t9 8t12 5t16 3t19 3t25 3t30 4q42 8 42 40q0 30 -49 183t-105 279q-8 20 -36 20h-482q-32 0 -46 -24q-70 -130 -125 -269t-55 -173q0 -36 23 -47t81 -17q18 0 26 -2q44 -4 44 -50q0 -44 -44 -44q-6 0 -35 3 t-80 6t-111 3q-34 0 -68 -1t-60 -3t-46 -4t-32 -3t-14 -1q-42 0 -42 42zM610 730q0 -10 12 -10h420q18 0 18 16t-79 200t-101 222q-8 14 -22 14q-18 0 -38 -36q-210 -396 -210 -406zM734 1532q0 28 40 54l282 204q62 48 104 48q34 0 58 -21t24 -53q0 -8 -2 -17t-4 -15 t-7 -13t-9 -11t-10 -9t-10 -8t-12 -7t-11 -6t-10 -6t-9 -4q-370 -176 -382 -176q-16 0 -29 11t-13 29z" />
<glyph unicode="&#xc2;" horiz-adv-x="1680" d="M18 30q0 10 1 17t4 13l5 10t9 7t9 4t13 3t14 3t18 3t19 2q48 6 72 25t46 73q144 322 312 656q296 560 306 574q4 4 12 10q22 16 50 16q54 0 86 -78l294 -680q224 -542 228 -548q22 -32 59 -42t64 -14t31 -24q4 -16 4 -28q0 -44 -42 -44l-34 4q-34 2 -91 5t-111 3 q-66 0 -120 -3t-85 -6t-37 -3q-42 0 -42 34q0 10 1 18t4 15t4 11t9 8t12 5t16 3t19 3t25 3t30 4q42 8 42 40q0 30 -49 183t-105 279q-8 20 -36 20h-482q-32 0 -46 -24q-70 -130 -125 -269t-55 -173q0 -36 23 -47t81 -17q18 0 26 -2q44 -4 44 -50q0 -44 -44 -44q-6 0 -35 3 t-80 6t-111 3q-34 0 -68 -1t-60 -3t-46 -4t-32 -3t-14 -1q-42 0 -42 42zM610 730q0 -10 12 -10h420q18 0 18 16t-79 200t-101 222q-8 14 -22 14q-18 0 -38 -36q-210 -396 -210 -406zM652 1520q0 14 74 106q58 72 102 126q36 48 78 48q26 0 52 -28q188 -232 190 -240 q2 -4 2 -10q0 -10 -8 -20t-24 -10q-26 0 -54 28q-16 14 -34 29t-29 24t-23 19t-19 16t-15 12t-13 9t-10 5t-10 3t-9 1q-28 0 -111 -73t-107 -73q-16 0 -24 10t-8 18z" />
<glyph unicode="&#xc3;" horiz-adv-x="1680" d="M18 30q0 10 1 17t4 13l5 10t9 7t9 4t13 3t14 3t18 3t19 2q48 6 72 25t46 73q144 322 312 656q296 560 306 574q4 4 12 10q22 16 50 16q54 0 86 -78l294 -680q224 -542 228 -548q22 -32 59 -42t64 -14t31 -24q4 -16 4 -28q0 -44 -42 -44l-34 4q-34 2 -91 5t-111 3 q-66 0 -120 -3t-85 -6t-37 -3q-42 0 -42 34q0 10 1 18t4 15t4 11t9 8t12 5t16 3t19 3t25 3t30 4q42 8 42 40q0 30 -49 183t-105 279q-8 20 -36 20h-482q-32 0 -46 -24q-70 -130 -125 -269t-55 -173q0 -36 23 -47t81 -17q18 0 26 -2q44 -4 44 -50q0 -44 -44 -44q-6 0 -35 3 t-80 6t-111 3q-34 0 -68 -1t-60 -3t-46 -4t-32 -3t-14 -1q-42 0 -42 42zM582 1542q0 6 36 60t56 74q48 48 104 48q46 0 114 -44t114 -44q42 0 76 23t55 47t29 24t24 -8t16 -18q0 -12 -40 -60t-76 -74q-56 -44 -118 -44q-54 0 -118 46t-102 46q-40 0 -71 -27t-49 -54t-22 -27 q-6 0 -17 12t-11 20zM610 730q0 -10 12 -10h420q18 0 18 16t-79 200t-101 222q-8 14 -22 14q-18 0 -38 -36q-210 -396 -210 -406z" />
<glyph unicode="&#xc4;" horiz-adv-x="1680" d="M18 30q0 10 1 17t4 13l5 10t9 7t9 4t13 3t14 3t18 3t19 2q48 6 72 25t46 73q144 322 312 656q296 560 306 574q4 4 12 10q22 16 50 16q54 0 86 -78l294 -680q224 -542 228 -548q22 -32 59 -42t64 -14t31 -24q4 -16 4 -28q0 -44 -42 -44l-34 4q-34 2 -91 5t-111 3 q-66 0 -120 -3t-85 -6t-37 -3q-42 0 -42 34q0 10 1 18t4 15t4 11t9 8t12 5t16 3t19 3t25 3t30 4q42 8 42 40q0 30 -49 183t-105 279q-8 20 -36 20h-482q-32 0 -46 -24q-70 -130 -125 -269t-55 -173q0 -36 23 -47t81 -17q18 0 26 -2q44 -4 44 -50q0 -44 -44 -44q-6 0 -35 3 t-80 6t-111 3q-34 0 -68 -1t-60 -3t-46 -4t-32 -3t-14 -1q-42 0 -42 42zM610 730q0 -10 12 -10h420q18 0 18 16t-79 200t-101 222q-8 14 -22 14q-18 0 -38 -36q-210 -396 -210 -406zM666 1588q0 40 29 68t69 28q42 0 71 -27t29 -67q0 -42 -29 -70t-71 -28t-70 27t-28 69z M944 1588q0 40 29 68t69 28q42 0 70 -27t28 -67q0 -42 -29 -70t-69 -28q-42 0 -70 27t-28 69z" />
<glyph unicode="&#xc5;" horiz-adv-x="1680" d="M18 30q0 10 1 17t4 13l5 10t9 7t9 4t13 3t14 3t18 3t19 2q48 6 72 25t46 73q144 322 312 656q296 560 306 574q4 4 12 10q22 16 50 16q54 0 86 -78l294 -680q224 -542 228 -548q22 -32 59 -42t64 -14t31 -24q4 -16 4 -28q0 -44 -42 -44l-34 4q-34 2 -91 5t-111 3 q-66 0 -120 -3t-85 -6t-37 -3q-42 0 -42 34q0 10 1 18t4 15t4 11t9 8t12 5t16 3t19 3t25 3t30 4q42 8 42 40q0 30 -49 183t-105 279q-8 20 -36 20h-482q-32 0 -46 -24q-70 -130 -125 -269t-55 -173q0 -36 23 -47t81 -17q18 0 26 -2q44 -4 44 -50q0 -44 -44 -44q-6 0 -35 3 t-80 6t-111 3q-34 0 -68 -1t-60 -3t-46 -4t-32 -3t-14 -1q-42 0 -42 42zM610 730q0 -10 12 -10h420q18 0 18 16t-79 200t-101 222q-8 14 -22 14q-18 0 -38 -36q-210 -396 -210 -406zM732 1640q0 74 52 128t122 54q72 0 123 -54t51 -128t-51 -127t-123 -53q-70 0 -122 53 t-52 127zM814 1644q0 -42 27 -73t67 -31t66 30t26 70t-27 72t-67 32q-38 0 -65 -30t-27 -70z" />
<glyph unicode="&#xc6;" horiz-adv-x="2068" d="M-8 30q0 36 22 44q8 2 38 7t58 14t48 25t48 69t112 206t200 343q76 124 142 225t102 152t63 88t36 52t9 25q0 30 -132 48q-42 6 -66 10q-42 6 -42 44q0 14 8 34t22 20q6 0 32 -2t92 -6t156 -8q52 -2 496 -2q422 0 432 -2q20 -6 24 -34q6 -40 21 -105t27 -113t12 -50 q0 -16 -16 -27t-36 -11q-26 0 -38 20q-6 12 -47 105t-49 105h-458q-30 0 -44 -14t-16 -27t-2 -45v-300q0 -46 40 -46h314q52 0 65 19t13 75v38q0 44 54 44q56 0 56 -58v-378q0 -58 -56 -58q-24 0 -37 8t-15 16t-2 20v80q0 48 -9 62t-45 14h-282q-32 0 -50 -4t-34 -23 t-16 -55v-452q0 -38 2 -53t16 -27t46 -16q90 -14 194 -14q102 0 186 14t106 30q18 14 72 111t70 107q10 6 20 6q36 0 36 -46q0 -24 -62 -294q-6 -28 -21 -34t-51 -6h-968q-34 0 -34 30t27 43t61 13t69 10t47 38v480h-362q-78 0 -92 -3t-24 -19q-80 -126 -146 -269t-66 -175 q0 -12 3 -21t11 -15t15 -10t22 -7t26 -5t34 -5t37 -5q36 -4 36 -48t-34 -44q-2 0 -16 1t-37 3t-52 4t-68 3t-75 1q-38 0 -76 -1t-67 -3t-51 -4t-36 -3t-16 -1q-32 0 -32 42zM658 720h400v572q-32 0 -42 -10q-60 -62 -209 -302t-149 -260z" />
<glyph unicode="&#xc7;" horiz-adv-x="1432" d="M38 686q0 150 62 290t166 240q220 210 522 210h2q110 0 203 -27t144 -55t55 -28q16 0 28 34t32 40q4 0 12 1t10 1q22 0 26 -24l14 -104q14 -106 28 -214t14 -116q0 -34 -42 -34q-38 0 -44 13t-14 83q-10 76 -54 134q-70 88 -178 145t-240 57q-222 0 -385 -168t-163 -440 q0 -282 168 -475t408 -193q180 0 329 110t205 292q10 28 30 28q34 0 34 -24q-46 -318 -52 -332q-10 -34 -46 -34h-2h-56q-24 0 -35 -4t-30 -18t-31 -20q-162 -94 -346 -104q-4 -12 -8 -19t-4 -11l-2 -2q0 -6 8 -6h8q76 0 124 -41t48 -115v-2q0 -62 -39 -108t-129 -46 q-46 0 -101 11t-61 17q-8 6 -8 14q0 4 2 14t9 22t17 12l8 -2q8 -2 20 -4t25 -4t28 -4t25 -2q34 0 56 19t22 47q0 42 -41 72t-105 34q-10 0 -10 6q0 2 40 100q-300 14 -503 228t-203 506z" />
<glyph unicode="&#xc8;" horiz-adv-x="1182" d="M18 36q0 22 16 32t80 34q36 14 60 22q46 16 46 80v1068q0 22 -10 28t-46 12q-18 2 -44 4t-39 4t-27 7t-20 15t-6 28q0 46 40 46h942q34 0 44 -34q8 -38 23 -106t26 -115t11 -51q0 -30 -42 -30q-32 0 -58 36q-90 158 -102 172q-18 18 -58 18h-386q-40 0 -51 -20t-11 -58 v-308q0 -46 40 -46h314q22 0 36 3t28 19t14 46v64q0 44 54 44q58 0 58 -58v-378q0 -58 -58 -58q-54 0 -54 44v110q0 46 -54 46h-282q-22 0 -36 -2t-31 -9t-25 -25t-8 -46v-470q0 -22 3 -35t18 -26t43 -17q90 -14 192 -14q68 0 168 12t126 32q18 14 72 111t70 107q12 6 20 6 q14 0 25 -12t11 -34v-2q0 -18 -62 -292q-4 -24 -17 -32t-45 -8h-704q-92 0 -171 -12t-83 -12q-24 0 -37 23t-13 37zM328 1766q0 34 23 54t57 20q46 0 108 -48q302 -220 312 -234q8 -16 8 -26q0 -18 -12 -28t-28 -10h-2q-14 0 -382 176l-10 4l-12 6t-13 8t-15 11t-13 12 t-11 15t-7 18t-3 22z" />
<glyph unicode="&#xc9;" horiz-adv-x="1182" d="M18 36q0 22 16 32t80 34q36 14 60 22q46 16 46 80v1068q0 22 -10 28t-46 12q-18 2 -44 4t-39 4t-27 7t-20 15t-6 28q0 46 40 46h942q34 0 44 -34q8 -38 23 -106t26 -115t11 -51q0 -30 -42 -30q-32 0 -58 36q-90 158 -102 172q-18 18 -58 18h-386q-40 0 -51 -20t-11 -58 v-308q0 -46 40 -46h314q22 0 36 3t28 19t14 46v64q0 44 54 44q58 0 58 -58v-378q0 -58 -58 -58q-54 0 -54 44v110q0 46 -54 46h-282q-22 0 -36 -2t-31 -9t-25 -25t-8 -46v-470q0 -22 3 -35t18 -26t43 -17q90 -14 192 -14q68 0 168 12t126 32q18 14 72 111t70 107q12 6 20 6 q14 0 25 -12t11 -34v-2q0 -18 -62 -292q-4 -24 -17 -32t-45 -8h-704q-92 0 -171 -12t-83 -12q-24 0 -37 23t-13 37zM330 1532q0 28 40 54l282 204q62 48 104 48q34 0 58 -21t24 -53q0 -8 -2 -17t-4 -15t-7 -13t-9 -11t-10 -9t-10 -8t-12 -7t-11 -6t-10 -6t-9 -4 q-370 -176 -382 -176q-16 0 -29 11t-13 29z" />
<glyph unicode="&#xca;" horiz-adv-x="1182" d="M18 36q0 22 16 32t80 34q36 14 60 22q46 16 46 80v1068q0 22 -10 28t-46 12q-18 2 -44 4t-39 4t-27 7t-20 15t-6 28q0 46 40 46h942q34 0 44 -34q8 -38 23 -106t26 -115t11 -51q0 -30 -42 -30q-32 0 -58 36q-90 158 -102 172q-18 18 -58 18h-386q-40 0 -51 -20t-11 -58 v-308q0 -46 40 -46h314q22 0 36 3t28 19t14 46v64q0 44 54 44q58 0 58 -58v-378q0 -58 -58 -58q-54 0 -54 44v110q0 46 -54 46h-282q-22 0 -36 -2t-31 -9t-25 -25t-8 -46v-470q0 -22 3 -35t18 -26t43 -17q90 -14 192 -14q68 0 168 12t126 32q18 14 72 111t70 107q12 6 20 6 q14 0 25 -12t11 -34v-2q0 -18 -62 -292q-4 -24 -17 -32t-45 -8h-704q-92 0 -171 -12t-83 -12q-24 0 -37 23t-13 37zM336 1520q0 14 74 106q58 72 102 126q36 48 78 48q26 0 52 -28q188 -232 190 -240q2 -4 2 -10q0 -10 -8 -20t-24 -10q-26 0 -54 28q-16 14 -34 29t-29 24 t-23 19t-19 16t-15 12t-13 9t-10 5t-10 3t-9 1q-28 0 -111 -73t-107 -73q-16 0 -24 10t-8 18z" />
<glyph unicode="&#xcb;" horiz-adv-x="1182" d="M18 36q0 22 16 32t80 34q36 14 60 22q46 16 46 80v1068q0 22 -10 28t-46 12q-18 2 -44 4t-39 4t-27 7t-20 15t-6 28q0 46 40 46h942q34 0 44 -34q8 -38 23 -106t26 -115t11 -51q0 -30 -42 -30q-32 0 -58 36q-90 158 -102 172q-18 18 -58 18h-386q-40 0 -51 -20t-11 -58 v-308q0 -46 40 -46h314q22 0 36 3t28 19t14 46v64q0 44 54 44q58 0 58 -58v-378q0 -58 -58 -58q-54 0 -54 44v110q0 46 -54 46h-282q-22 0 -36 -2t-31 -9t-25 -25t-8 -46v-470q0 -22 3 -35t18 -26t43 -17q90 -14 192 -14q68 0 168 12t126 32q18 14 72 111t70 107q12 6 20 6 q14 0 25 -12t11 -34v-2q0 -18 -62 -292q-4 -24 -17 -32t-45 -8h-704q-92 0 -171 -12t-83 -12q-24 0 -37 23t-13 37zM348 1588q0 40 29 68t69 28q42 0 71 -27t29 -67q0 -42 -29 -70t-71 -28t-70 27t-28 69zM626 1588q0 40 29 68t69 28q42 0 70 -27t28 -67q0 -42 -29 -70 t-69 -28q-42 0 -70 27t-28 69z" />
<glyph unicode="&#xcc;" horiz-adv-x="660" d="M26 54q0 24 17 30t81 10q44 2 74 4q44 2 44 58v1064q0 6 1 17t1 13q0 26 -16 32t-72 8q-30 0 -48 2q-46 4 -46 44q0 56 44 56l34 -2q34 -2 90 -5t112 -3q58 0 106 2t75 4t33 2q34 0 34 -38q0 -10 -1 -17t-2 -13t-5 -10l-7 -7t-11 -5t-13 -4t-17 -3t-20 -2t-25 -2t-29 -3 q-32 -2 -32 -34v-1106q0 -48 36 -52q20 -2 44 -3t38 -1t29 -2t23 -4t15 -6t10 -12t3 -18q0 -60 -40 -60q-2 0 -16 1t-39 3t-55 4t-70 3t-80 1t-80 -1t-71 -3t-55 -4t-39 -3t-17 -1q-32 0 -36 46q-2 6 -2 20zM70 1766q0 34 23 54t57 20q46 0 108 -48q302 -220 312 -234 q8 -16 8 -26q0 -18 -12 -28t-28 -10h-2q-14 0 -382 176l-10 4l-12 6t-13 8t-15 11t-13 12t-11 15t-7 18t-3 22z" />
<glyph unicode="&#xcd;" horiz-adv-x="660" d="M26 54q0 24 17 30t81 10q44 2 74 4q44 2 44 58v1064q0 6 1 17t1 13q0 26 -16 32t-72 8q-30 0 -48 2q-46 4 -46 44q0 56 44 56l34 -2q34 -2 90 -5t112 -3q58 0 106 2t75 4t33 2q34 0 34 -38q0 -10 -1 -17t-2 -13t-5 -10l-7 -7t-11 -5t-13 -4t-17 -3t-20 -2t-25 -2t-29 -3 q-32 -2 -32 -34v-1106q0 -48 36 -52q20 -2 44 -3t38 -1t29 -2t23 -4t15 -6t10 -12t3 -18q0 -60 -40 -60q-2 0 -16 1t-39 3t-55 4t-70 3t-80 1t-80 -1t-71 -3t-55 -4t-39 -3t-17 -1q-32 0 -36 46q-2 6 -2 20zM70 1532q0 28 40 54l282 204q62 48 104 48q34 0 58 -21t24 -53 q0 -8 -2 -17t-4 -15t-7 -13t-9 -11t-10 -9t-10 -8t-12 -7t-11 -6t-10 -6t-9 -4q-370 -176 -382 -176q-16 0 -29 11t-13 29z" />
<glyph unicode="&#xce;" horiz-adv-x="660" d="M26 54q0 24 17 30t81 10q44 2 74 4q44 2 44 58v1064q0 6 1 17t1 13q0 26 -16 32t-72 8q-30 0 -48 2q-46 4 -46 44q0 56 44 56l34 -2q34 -2 90 -5t112 -3q58 0 106 2t75 4t33 2q34 0 34 -38q0 -10 -1 -17t-2 -13t-5 -10l-7 -7t-11 -5t-13 -4t-17 -3t-20 -2t-25 -2t-29 -3 q-32 -2 -32 -34v-1106q0 -48 36 -52q20 -2 44 -3t38 -1t29 -2t23 -4t15 -6t10 -12t3 -18q0 -60 -40 -60q-2 0 -16 1t-39 3t-55 4t-70 3t-80 1t-80 -1t-71 -3t-55 -4t-39 -3t-17 -1q-32 0 -36 46q-2 6 -2 20zM78 1520q0 14 74 106q58 72 102 126q36 48 78 48q26 0 52 -28 q188 -232 190 -240q2 -4 2 -10q0 -10 -8 -20t-24 -10q-26 0 -54 28q-16 14 -34 29t-29 24t-23 19t-19 16t-15 12t-13 9t-10 5t-10 3t-9 1q-28 0 -111 -73t-107 -73q-16 0 -24 10t-8 18z" />
<glyph unicode="&#xcf;" horiz-adv-x="660" d="M26 54q0 24 17 30t81 10q44 2 74 4q44 2 44 58v1064q0 6 1 17t1 13q0 26 -16 32t-72 8q-30 0 -48 2q-46 4 -46 44q0 56 44 56l34 -2q34 -2 90 -5t112 -3q58 0 106 2t75 4t33 2q34 0 34 -38q0 -10 -1 -17t-2 -13t-5 -10l-7 -7t-11 -5t-13 -4t-17 -3t-20 -2t-25 -2t-29 -3 q-32 -2 -32 -34v-1106q0 -48 36 -52q20 -2 44 -3t38 -1t29 -2t23 -4t15 -6t10 -12t3 -18q0 -60 -40 -60q-2 0 -16 1t-39 3t-55 4t-70 3t-80 1t-80 -1t-71 -3t-55 -4t-39 -3t-17 -1q-32 0 -36 46q-2 6 -2 20zM90 1588q0 40 29 68t69 28q42 0 71 -27t29 -67q0 -42 -29 -70 t-71 -28t-70 27t-28 69zM368 1588q0 40 29 68t69 28q42 0 70 -27t28 -67q0 -42 -29 -70t-69 -28q-42 0 -70 27t-28 69z" />
<glyph unicode="&#xd1;" horiz-adv-x="1636" d="M18 1342q0 52 46 52h252q50 0 82 -38l320 -372l188 -210q376 -408 392 -418q4 -4 8 -4q14 0 14 20q0 24 2 69t3 82t1 69q0 276 -20 610q-2 60 -28 76t-104 24q-46 6 -46 44q0 18 14 33t46 15q4 0 29 -1t70 -3t97 -2t95 2t68 3t29 1q44 0 44 -46q0 -16 -4 -26t-16 -15 t-19 -6t-27 -2t-28 -1q-52 -4 -71 -32t-21 -110q-8 -348 -8 -532q0 -152 2 -282t4 -203t2 -89q0 -98 -42 -98q-24 0 -100 86l-424 484q-450 500 -454 500l-8 -8q-28 -420 -28 -728v-58q0 -82 16 -106t78 -28q76 0 124 -14q26 -12 26 -54q0 -38 -34 -38q-2 0 -16 1t-37 3 t-53 4t-68 3t-76 1q-60 0 -120 -3t-96 -5l-36 -4q-42 0 -42 40q0 44 30 54q12 4 55 7t74 16t45 43q8 20 38 574q12 236 20 388v8q0 28 -68 90q-80 80 -182 88q-38 0 -38 46zM508 1522q0 6 36 60t56 74q48 48 104 48q46 0 114 -44t114 -44q42 0 76 23t55 47t29 24t24 -8 t16 -18q0 -12 -40 -60t-76 -74q-56 -44 -118 -44q-54 0 -118 46t-102 46q-40 0 -71 -27t-49 -54t-22 -27q-6 0 -17 12t-11 20z" />
<glyph unicode="&#xd2;" horiz-adv-x="1592" d="M36 722q0 310 223 531t533 221q324 0 544 -232t220 -552q0 -318 -215 -529t-519 -211q-150 0 -294 58t-254 164q-234 226 -238 550zM232 786q0 -136 37 -262t107 -228t184 -164t254 -62q94 0 184 32t172 97t133 183t51 272q0 162 -55 317t-171 257q-156 138 -368 138 q-98 0 -190 -35t-169 -102t-123 -182t-46 -261zM542 1768q0 34 23 54t57 20q46 0 108 -48q302 -220 312 -234q8 -16 8 -26q0 -18 -12 -28t-28 -10h-2q-14 0 -382 176l-10 4l-12 6t-13 8t-15 11t-13 12t-11 15t-7 18t-3 22z" />
<glyph unicode="&#xd3;" horiz-adv-x="1592" d="M36 722q0 310 223 531t533 221q324 0 544 -232t220 -552q0 -318 -215 -529t-519 -211q-150 0 -294 58t-254 164q-234 226 -238 550zM232 786q0 -136 37 -262t107 -228t184 -164t254 -62q94 0 184 32t172 97t133 183t51 272q0 162 -55 317t-171 257q-156 138 -368 138 q-98 0 -190 -35t-169 -102t-123 -182t-46 -261zM542 1536q0 28 40 54l282 204q62 48 104 48q34 0 58 -21t24 -53q0 -8 -2 -17t-4 -15t-7 -13t-9 -11t-10 -9t-10 -8t-12 -7t-11 -6t-10 -6t-9 -4q-370 -176 -382 -176q-16 0 -29 11t-13 29z" />
<glyph unicode="&#xd4;" horiz-adv-x="1592" d="M36 722q0 310 223 531t533 221q324 0 544 -232t220 -552q0 -318 -215 -529t-519 -211q-150 0 -294 58t-254 164q-234 226 -238 550zM232 786q0 -136 37 -262t107 -228t184 -164t254 -62q94 0 184 32t172 97t133 183t51 272q0 162 -55 317t-171 257q-156 138 -368 138 q-98 0 -190 -35t-169 -102t-123 -182t-46 -261zM548 1524q0 14 74 106q58 72 102 126q36 48 78 48q26 0 52 -28q188 -232 190 -240q2 -4 2 -10q0 -10 -8 -20t-24 -10q-26 0 -54 28q-16 14 -34 29t-29 24t-23 19t-19 16t-15 12t-13 9t-10 5t-10 3t-9 1q-28 0 -111 -73 t-107 -73q-16 0 -24 10t-8 18z" />
<glyph unicode="&#xd5;" horiz-adv-x="1592" d="M36 722q0 310 223 531t533 221q324 0 544 -232t220 -552q0 -318 -215 -529t-519 -211q-150 0 -294 58t-254 164q-234 226 -238 550zM232 786q0 -136 37 -262t107 -228t184 -164t254 -62q94 0 184 32t172 97t133 183t51 272q0 162 -55 317t-171 257q-156 138 -368 138 q-98 0 -190 -35t-169 -102t-123 -182t-46 -261zM484 1546q0 6 36 60t56 74q48 48 104 48q46 0 114 -44t114 -44q42 0 76 23t55 47t29 24t24 -8t16 -18q0 -12 -40 -60t-76 -74q-56 -44 -118 -44q-54 0 -118 46t-102 46q-40 0 -71 -27t-49 -54t-22 -27q-6 0 -17 12t-11 20z " />
<glyph unicode="&#xd6;" horiz-adv-x="1592" d="M36 722q0 310 223 531t533 221q324 0 544 -232t220 -552q0 -318 -215 -529t-519 -211q-150 0 -294 58t-254 164q-234 226 -238 550zM232 786q0 -136 37 -262t107 -228t184 -164t254 -62q94 0 184 32t172 97t133 183t51 272q0 162 -55 317t-171 257q-156 138 -368 138 q-98 0 -190 -35t-169 -102t-123 -182t-46 -261zM560 1612q0 40 29 68t69 28q42 0 71 -27t29 -67q0 -42 -29 -70t-71 -28t-70 27t-28 69zM838 1612q0 40 29 68t69 28q42 0 70 -27t28 -67q0 -42 -29 -70t-69 -28q-42 0 -70 27t-28 69z" />
<glyph unicode="&#xd7;" horiz-adv-x="1130" d="M108 922q0 14 25 40t45 26h2q18 0 202 -188l186 -186q136 136 276 278q74 74 88 87t24 13h2q14 0 40 -26t26 -44v-2q0 -14 -29 -45t-199 -201l-144 -144q358 -358 364 -366q10 -12 10 -22q0 -16 -25 -42t-43 -26q-16 0 -34 18l-356 356q-356 -356 -370 -366 q-10 -8 -20 -8q-16 0 -42 25t-26 43q0 14 20 34l356 354q-108 110 -242 242q-96 94 -116 116t-20 34z" />
<glyph unicode="&#xd8;" horiz-adv-x="1592" d="M36 722q0 310 223 531t533 221q158 0 306 -62q56 102 64 110q8 4 28 4q74 0 74 -34q0 -6 -70 -132q168 -106 265 -286t97 -384q0 -318 -215 -529t-519 -211q-188 0 -356 86q-32 -58 -54 -100q-8 -12 -10 -16q-14 -10 -40 -10q-70 0 -70 26v2l82 152q-156 108 -246 276 t-92 356zM232 786q0 -156 51 -309t161 -259l590 1078q-128 70 -274 70q-98 0 -190 -35t-169 -102t-123 -182t-46 -261zM528 150q130 -80 286 -80q94 0 184 32t172 97t133 183t51 272q0 166 -56 320t-174 258z" />
<glyph unicode="&#xd9;" horiz-adv-x="1548" d="M34 1362q0 50 42 50q6 0 32 -2t73 -4t101 -2h12q58 0 108 2t78 4t34 2q38 0 38 -54q0 -16 -4 -26t-17 -14t-24 -6t-37 -4t-44 -4q-66 -8 -66 -72v-640q0 -136 24 -230t102 -164q122 -112 368 -112q286 0 374 186q40 84 40 228v28q0 22 -1 64t-1 64v556q0 36 -6 57t-31 31 t-37 12t-64 8q-44 4 -44 46q0 46 38 46q4 0 28 -2t64 -4t88 -2t88 2t64 4t28 2q38 0 38 -54q0 -28 -22 -37t-47 -9t-47 -33t-22 -107q0 -4 -1 -12t-1 -10v-464q0 -16 1 -48t1 -48v-66q0 -66 -5 -117t-22 -117t-56 -122t-99 -98q-142 -100 -386 -100q-138 0 -249 30t-172 69 t-107 94t-61 88t-25 69q-26 94 -26 262q0 26 1 78t1 78v516q0 12 -1 21t-7 14t-8 9t-14 6t-15 3t-20 3t-21 2q-56 8 -56 50zM522 1766q0 34 23 54t57 20q46 0 108 -48q302 -220 312 -234q8 -16 8 -26q0 -18 -12 -28t-28 -10h-2q-14 0 -382 176l-10 4l-12 6t-13 8t-15 11 t-13 12t-11 15t-7 18t-3 22z" />
<glyph unicode="&#xda;" horiz-adv-x="1548" d="M34 1362q0 50 42 50q6 0 32 -2t73 -4t101 -2h12q58 0 108 2t78 4t34 2q38 0 38 -54q0 -16 -4 -26t-17 -14t-24 -6t-37 -4t-44 -4q-66 -8 -66 -72v-640q0 -136 24 -230t102 -164q122 -112 368 -112q286 0 374 186q40 84 40 228v28q0 22 -1 64t-1 64v556q0 36 -6 57t-31 31 t-37 12t-64 8q-44 4 -44 46q0 46 38 46q4 0 28 -2t64 -4t88 -2t88 2t64 4t28 2q38 0 38 -54q0 -28 -22 -37t-47 -9t-47 -33t-22 -107q0 -4 -1 -12t-1 -10v-464q0 -16 1 -48t1 -48v-66q0 -66 -5 -117t-22 -117t-56 -122t-99 -98q-142 -100 -386 -100q-138 0 -249 30t-172 69 t-107 94t-61 88t-25 69q-26 94 -26 262q0 26 1 78t1 78v516q0 12 -1 21t-7 14t-8 9t-14 6t-15 3t-20 3t-21 2q-56 8 -56 50zM646 1532q0 28 40 54l282 204q62 48 104 48q34 0 58 -21t24 -53q0 -8 -2 -17t-4 -15t-7 -13t-9 -11t-10 -9t-10 -8t-12 -7t-11 -6t-10 -6t-9 -4 q-370 -176 -382 -176q-16 0 -29 11t-13 29z" />
<glyph unicode="&#xdb;" horiz-adv-x="1548" d="M34 1362q0 50 42 50q6 0 32 -2t73 -4t101 -2h12q58 0 108 2t78 4t34 2q38 0 38 -54q0 -16 -4 -26t-17 -14t-24 -6t-37 -4t-44 -4q-66 -8 -66 -72v-640q0 -136 24 -230t102 -164q122 -112 368 -112q286 0 374 186q40 84 40 228v28q0 22 -1 64t-1 64v556q0 36 -6 57t-31 31 t-37 12t-64 8q-44 4 -44 46q0 46 38 46q4 0 28 -2t64 -4t88 -2t88 2t64 4t28 2q38 0 38 -54q0 -28 -22 -37t-47 -9t-47 -33t-22 -107q0 -4 -1 -12t-1 -10v-464q0 -16 1 -48t1 -48v-66q0 -66 -5 -117t-22 -117t-56 -122t-99 -98q-142 -100 -386 -100q-138 0 -249 30t-172 69 t-107 94t-61 88t-25 69q-26 94 -26 262q0 26 1 78t1 78v516q0 12 -1 21t-7 14t-8 9t-14 6t-15 3t-20 3t-21 2q-56 8 -56 50zM528 1520q0 14 74 106q58 72 102 126q36 48 78 48q26 0 52 -28q188 -232 190 -240q2 -4 2 -10q0 -10 -8 -20t-24 -10q-26 0 -54 28q-16 14 -34 29 t-29 24t-23 19t-19 16t-15 12t-13 9t-10 5t-10 3t-9 1q-28 0 -111 -73t-107 -73q-16 0 -24 10t-8 18z" />
<glyph unicode="&#xdc;" horiz-adv-x="1548" d="M34 1362q0 50 42 50q6 0 32 -2t73 -4t101 -2h12q58 0 108 2t78 4t34 2q38 0 38 -54q0 -16 -4 -26t-17 -14t-24 -6t-37 -4t-44 -4q-66 -8 -66 -72v-640q0 -136 24 -230t102 -164q122 -112 368 -112q286 0 374 186q40 84 40 228v28q0 22 -1 64t-1 64v556q0 36 -6 57t-31 31 t-37 12t-64 8q-44 4 -44 46q0 46 38 46q4 0 28 -2t64 -4t88 -2t88 2t64 4t28 2q38 0 38 -54q0 -28 -22 -37t-47 -9t-47 -33t-22 -107q0 -4 -1 -12t-1 -10v-464q0 -16 1 -48t1 -48v-66q0 -66 -5 -117t-22 -117t-56 -122t-99 -98q-142 -100 -386 -100q-138 0 -249 30t-172 69 t-107 94t-61 88t-25 69q-26 94 -26 262q0 26 1 78t1 78v516q0 12 -1 21t-7 14t-8 9t-14 6t-15 3t-20 3t-21 2q-56 8 -56 50zM590 1588q0 40 29 68t69 28q42 0 71 -27t29 -67q0 -42 -29 -70t-71 -28t-70 27t-28 69zM868 1588q0 40 29 68t69 28q42 0 70 -27t28 -67 q0 -42 -29 -70t-69 -28q-42 0 -70 27t-28 69z" />
<glyph unicode="&#xdd;" horiz-adv-x="1366" d="M22 1366q0 18 13 32t39 14q6 0 35 -2t80 -4t111 -2t110 2t78 4t34 2q38 0 38 -42q0 -10 -1 -18t-4 -14t-6 -10t-11 -7t-13 -4t-18 -3t-22 -2t-27 -1t-32 -3q-54 -6 -54 -46v-4q0 -14 98 -182q104 -182 194 -336q18 -30 28 -30q4 0 16 12q296 408 324 454q36 64 36 86 q0 32 -18 41t-66 11h-14q-32 2 -48 4t-30 15t-14 37q0 14 11 28t33 14q4 0 28 -2t65 -4t89 -2h6q48 0 90 2t64 4t28 2q30 0 44 -13t14 -29q0 -20 -15 -33t-43 -33t-48 -46l-298 -384q-34 -46 -69 -93t-53 -72t-37 -49t-26 -36t-15 -23t-9 -21t-2 -17t-1 -21v-398 q0 -30 22 -37t122 -11q50 -2 80 -4q46 -2 46 -48v-18q0 -38 -34 -38l-42 4q-40 2 -109 5t-137 3q-44 0 -89 -1t-79 -3t-61 -4t-43 -3t-18 -1q-52 0 -52 58q0 8 1 15t2 12t6 8t8 5t12 4t16 3t20 1t26 1t32 1t37 2l8 2h11t8 1t9 2t8 3t7 6t4 8t4 10t1 14v424q0 18 -4 33t-6 21 t-15 28t-19 30q-188 302 -326 524q-46 72 -50 80q-20 26 -60 29t-50 25q-8 12 -8 28zM530 1532q0 28 40 54l282 204q62 48 104 48q34 0 58 -21t24 -53q0 -8 -2 -17t-4 -15t-7 -13t-9 -11t-10 -9t-10 -8t-12 -7t-11 -6t-10 -6t-9 -4q-370 -176 -382 -176q-16 0 -29 11t-13 29 z" />
<glyph unicode="&#xdf;" horiz-adv-x="1082" d="M18 776q0 48 30 58q10 4 60 4t54 2q6 2 6 14v4q4 364 180 514q120 100 274 100q106 0 173 -62t67 -166q0 -72 -36 -136t-79 -101t-79 -88t-36 -101q0 -56 35 -100t124 -119t149 -139q128 -138 128 -262q0 -104 -73 -170t-181 -66q-102 0 -176 38t-98 78q-12 22 -12 56 v134q0 32 4 38q14 14 32 14t24 -12t5 -28t3 -44t16 -50q20 -32 73 -71t113 -39t102 36t42 92q0 54 -36 99t-137 130t-171 157q-82 82 -82 164q0 62 45 132t90 144t45 148q0 72 -43 122t-111 50q-24 0 -49 -9t-62 -37t-66 -96t-41 -168q-10 -80 -10 -242v-20q0 -224 -1 -368 t-1 -200v-70q0 -20 2 -31t17 -23t45 -14q34 -2 45 -4t18 -9t7 -25q0 -46 -22 -46h-10q-10 2 -27 4t-39 4t-50 3t-54 1q-28 0 -56 -1t-49 -3t-38 -4t-27 -3t-12 -1q-26 0 -26 38q0 8 1 14t3 11t4 8t8 6t9 4t13 3t16 3t20 2t24 3q8 0 14 3t9 9t5 13t3 19t1 22t1 28t1 32 q4 104 4 512q0 14 -12 17t-56 3h-40h-2q-44 0 -44 38z" />
<glyph unicode="&#xe0;" horiz-adv-x="866" d="M60 706q0 60 97 121t217 61q38 0 78 -8t91 -28t86 -69t43 -119q4 -48 4 -74v-404q0 -36 14 -58t28 -27t28 -5q28 0 44 17t25 34t21 17q18 0 18 -26q0 -48 -44 -105t-114 -57q-26 0 -50 8t-40 21t-29 25t-21 22l-6 8q-2 0 -2 1t-2 1q-4 0 -6 -4t-14 -16t-34 -26 q-90 -56 -190 -56q-104 0 -169 66t-65 162v2q0 116 86 182q30 24 78 43t95 29t89 17t70 9l28 2q16 4 16 28v74q0 106 -48 164q-50 54 -120 54q-108 0 -176 -136q-18 -24 -44 -24q-32 0 -57 20t-25 54zM92 1360q0 34 23 55t53 21h2q56 0 112 -86q64 -94 140 -208 q76 -112 76 -130q0 -16 -12 -29t-28 -13h-4q-14 0 -29 13t-117 119q-94 94 -164 166q-52 52 -52 92zM220 210q0 -76 42 -112q28 -26 88 -26q46 0 87 20t57 36t26 28q12 16 12 46v50v84q0 38 -3 49t-17 11q-50 0 -125 -16t-119 -58q-48 -40 -48 -112z" />
<glyph unicode="&#xe1;" horiz-adv-x="866" d="M60 706q0 60 97 121t217 61q38 0 78 -8t91 -28t86 -69t43 -119q4 -48 4 -74v-404q0 -36 14 -58t28 -27t28 -5q28 0 44 17t25 34t21 17q18 0 18 -26q0 -48 -44 -105t-114 -57q-26 0 -50 8t-40 21t-29 25t-21 22l-6 8q-2 0 -2 1t-2 1q-4 0 -6 -4t-14 -16t-34 -26 q-90 -56 -190 -56q-104 0 -169 66t-65 162v2q0 116 86 182q30 24 78 43t95 29t89 17t70 9l28 2q16 4 16 28v74q0 106 -48 164q-50 54 -120 54q-108 0 -176 -136q-18 -24 -44 -24q-32 0 -57 20t-25 54zM220 210q0 -76 42 -112q28 -26 88 -26q46 0 87 20t57 36t26 28 q12 16 12 46v50v84q0 38 -3 49t-17 11q-50 0 -125 -16t-119 -58q-48 -40 -48 -112zM256 1012q0 20 92 156q70 102 124 182q56 86 112 86q32 0 54 -21t22 -55q0 -40 -48 -92q-268 -274 -286 -288q-14 -10 -30 -10q-18 0 -29 13t-11 29z" />
<glyph unicode="&#xe2;" horiz-adv-x="866" d="M60 706q0 60 97 121t217 61q38 0 78 -8t91 -28t86 -69t43 -119q4 -48 4 -74v-404q0 -36 14 -58t28 -27t28 -5q28 0 44 17t25 34t21 17q18 0 18 -26q0 -48 -44 -105t-114 -57q-26 0 -50 8t-40 21t-29 25t-21 22l-6 8q-2 0 -2 1t-2 1q-4 0 -6 -4t-14 -16t-34 -26 q-90 -56 -190 -56q-104 0 -169 66t-65 162v2q0 116 86 182q30 24 78 43t95 29t89 17t70 9l28 2q16 4 16 28v74q0 106 -48 164q-50 54 -120 54q-108 0 -176 -136q-18 -24 -44 -24q-32 0 -57 20t-25 54zM188 1002q0 12 51 158t77 204q26 60 60 60q32 0 59 -58t83 -222 q26 -74 40 -118q6 -18 6 -22q0 -18 -11 -26t-21 -8q-24 0 -52 48q-82 146 -92 152q-4 2 -10 2q-14 0 -25 -16t-57 -94q-18 -30 -28 -48q-28 -44 -48 -44q-10 0 -21 8t-11 24zM220 210q0 -76 42 -112q28 -26 88 -26q46 0 87 20t57 36t26 28q12 16 12 46v50v84q0 38 -3 49 t-17 11q-50 0 -125 -16t-119 -58q-48 -40 -48 -112z" />
<glyph unicode="&#xe3;" horiz-adv-x="866" d="M60 706q0 60 97 121t217 61q38 0 78 -8t91 -28t86 -69t43 -119q4 -48 4 -74v-404q0 -36 14 -58t28 -27t28 -5q28 0 44 17t25 34t21 17q18 0 18 -26q0 -48 -44 -105t-114 -57q-26 0 -50 8t-40 21t-29 25t-21 22l-6 8q-2 0 -2 1t-2 1q-4 0 -6 -4t-14 -16t-34 -26 q-90 -56 -190 -56q-104 0 -169 66t-65 162v2q0 116 86 182q30 24 78 43t95 29t89 17t70 9l28 2q16 4 16 28v74q0 106 -48 164q-50 54 -120 54q-108 0 -176 -136q-18 -24 -44 -24q-32 0 -57 20t-25 54zM64 1180q0 6 36 60t56 74q48 48 104 48q46 0 114 -44t114 -44 q42 0 76 23t55 47t29 24t24 -8t16 -18q0 -12 -40 -60t-76 -74q-56 -44 -118 -44q-54 0 -118 46t-102 46q-40 0 -71 -27t-49 -54t-22 -27q-6 0 -17 12t-11 20zM220 210q0 -76 42 -112q28 -26 88 -26q46 0 87 20t57 36t26 28q12 16 12 46v50v84q0 38 -3 49t-17 11 q-50 0 -125 -16t-119 -58q-48 -40 -48 -112z" />
<glyph unicode="&#xe4;" horiz-adv-x="866" d="M60 706q0 60 97 121t217 61q38 0 78 -8t91 -28t86 -69t43 -119q4 -48 4 -74v-404q0 -36 14 -58t28 -27t28 -5q28 0 44 17t25 34t21 17q18 0 18 -26q0 -48 -44 -105t-114 -57q-26 0 -50 8t-40 21t-29 25t-21 22l-6 8q-2 0 -2 1t-2 1q-4 0 -6 -4t-14 -16t-34 -26 q-90 -56 -190 -56q-104 0 -169 66t-65 162v2q0 116 86 182q30 24 78 43t95 29t89 17t70 9l28 2q16 4 16 28v74q0 106 -48 164q-50 54 -120 54q-108 0 -176 -136q-18 -24 -44 -24q-32 0 -57 20t-25 54zM138 1266q0 40 29 68t69 28q42 0 71 -27t29 -67q0 -42 -29 -70t-71 -28 t-70 27t-28 69zM220 210q0 -76 42 -112q28 -26 88 -26q46 0 87 20t57 36t26 28q12 16 12 46v50v84q0 38 -3 49t-17 11q-50 0 -125 -16t-119 -58q-48 -40 -48 -112zM416 1266q0 40 29 68t69 28q42 0 70 -27t28 -67q0 -42 -29 -70t-69 -28q-42 0 -70 27t-28 69z" />
<glyph unicode="&#xe5;" horiz-adv-x="866" d="M60 706q0 60 97 121t217 61q38 0 78 -8t91 -28t86 -69t43 -119q4 -48 4 -74v-404q0 -36 14 -58t28 -27t28 -5q28 0 44 17t25 34t21 17q18 0 18 -26q0 -48 -44 -105t-114 -57q-26 0 -50 8t-40 21t-29 25t-21 22l-6 8q-2 0 -2 1t-2 1q-4 0 -6 -4t-14 -16t-34 -26 q-90 -56 -190 -56q-104 0 -169 66t-65 162v2q0 116 86 182q30 24 78 43t95 29t89 17t70 9l28 2q16 4 16 28v74q0 106 -48 164q-50 54 -120 54q-108 0 -176 -136q-18 -24 -44 -24q-32 0 -57 20t-25 54zM200 1150q0 74 52 128t122 54q72 0 123 -54t51 -128t-51 -127t-123 -53 q-70 0 -122 53t-52 127zM220 210q0 -76 42 -112q28 -26 88 -26q46 0 87 20t57 36t26 28q12 16 12 46v50v84q0 38 -3 49t-17 11q-50 0 -125 -16t-119 -58q-48 -40 -48 -112zM282 1154q0 -42 27 -73t67 -31t66 30t26 70t-27 72t-67 32q-38 0 -65 -30t-27 -70z" />
<glyph unicode="&#xe6;" horiz-adv-x="1320" d="M58 702q0 60 95 121t221 61q72 0 126 -18t78 -40t42 -40t26 -18t18 10q114 106 252 106q130 0 249 -92t119 -150v-4q0 -18 -11 -32t-33 -25t-38 -17t-47 -16t-39 -12q-416 -144 -426 -150q-8 -4 -8 -12q0 -12 6 -40t27 -74t52 -85t89 -68t130 -29q138 0 242 100 q22 28 48 28q30 0 30 -28q0 -16 -12 -34q-68 -88 -165 -135t-199 -47q-60 0 -113 15t-87 37t-58 44t-37 37t-15 15t-20 -16t-47 -39t-66 -46t-87 -39t-100 -16q-102 0 -168 67t-66 163v2q0 116 86 182q48 38 138 63t156 29l66 6q16 4 16 46v58q0 106 -48 164q-48 54 -120 54 q-28 0 -53 -10t-42 -23t-33 -31t-24 -31t-16 -27l-8 -14q-20 -24 -46 -24q-30 0 -55 21t-25 53zM218 206q0 -56 29 -98t99 -42q78 0 136 48q34 26 41 44t7 78v58q0 70 -3 84t-17 14h-4q-288 -20 -288 -186zM672 478q0 -16 10 -16q4 0 191 72t195 76q16 8 16 24q0 28 -71 82 t-145 54q-88 0 -142 -79t-54 -213z" />
<glyph unicode="&#xe7;" horiz-adv-x="780" d="M34 404q0 210 122 341t318 131q108 0 184 -46t76 -106q0 -34 -24 -55t-58 -21q-44 0 -115 61t-133 61q-94 0 -164 -94t-70 -222q0 -146 93 -253t231 -107q54 0 99 17t68 38t46 38t37 17t24 -10t10 -24q0 -16 -12 -32q-54 -74 -142 -124t-196 -50h-6q-4 -10 -7 -18t-4 -12 t-3 -8t-2 -5v-3q0 -6 8 -6h6q76 0 124 -41t48 -115v-2q0 -62 -39 -108t-129 -46q-46 0 -101 11t-61 17q-8 6 -8 14q0 4 2 14t9 22t17 12l8 -2q8 -2 20 -4t26 -4t29 -4t25 -2q34 0 55 19t21 47q0 42 -40 72t-104 34q-10 0 -10 6l8 20q8 22 19 53t17 47q-144 24 -233 142 t-89 290z" />
<glyph unicode="&#xe8;" horiz-adv-x="836" d="M46 422q0 208 110 334t268 126q102 0 196 -56t156 -140q16 -20 16 -44v-4q0 -18 -10 -32t-32 -25t-38 -17t-47 -16t-39 -12q-418 -144 -428 -150q-8 -4 -8 -12q0 -12 6 -40t27 -74t52 -85t89 -68t130 -29q140 0 244 100q28 28 46 28q34 0 34 -30q0 -12 -16 -32 q-64 -84 -160 -133t-202 -49q-68 0 -133 24t-126 74t-98 144t-37 218zM66 1356q0 34 23 55t53 21h2q56 0 112 -86q64 -94 140 -208q76 -112 76 -130q0 -16 -12 -29t-28 -13h-4q-14 0 -29 13t-117 119q-94 94 -164 166q-52 52 -52 92zM182 478q0 -16 10 -16q4 0 191 73 t193 75q18 10 18 24q0 26 -70 81t-146 55q-90 0 -143 -78t-53 -214z" />
<glyph unicode="&#xe9;" horiz-adv-x="836" d="M46 422q0 208 110 334t268 126q102 0 196 -56t156 -140q16 -20 16 -44v-4q0 -18 -10 -32t-32 -25t-38 -17t-47 -16t-39 -12q-418 -144 -428 -150q-8 -4 -8 -12q0 -12 6 -40t27 -74t52 -85t89 -68t130 -29q140 0 244 100q28 28 46 28q34 0 34 -30q0 -12 -16 -32 q-64 -84 -160 -133t-202 -49q-68 0 -133 24t-126 74t-98 144t-37 218zM182 478q0 -16 10 -16q4 0 191 73t193 75q18 10 18 24q0 26 -70 81t-146 55q-90 0 -143 -78t-53 -214zM228 1008q0 20 92 156q70 102 124 182q56 86 112 86q32 0 54 -21t22 -55q0 -40 -48 -92 q-268 -274 -286 -288q-14 -10 -30 -10q-18 0 -29 13t-11 29z" />
<glyph unicode="&#xea;" horiz-adv-x="836" d="M46 422q0 208 110 334t268 126q102 0 196 -56t156 -140q16 -20 16 -44v-4q0 -18 -10 -32t-32 -25t-38 -17t-47 -16t-39 -12q-418 -144 -428 -150q-8 -4 -8 -12q0 -12 6 -40t27 -74t52 -85t89 -68t130 -29q140 0 244 100q28 28 46 28q34 0 34 -30q0 -12 -16 -32 q-64 -84 -160 -133t-202 -49q-68 0 -133 24t-126 74t-98 144t-37 218zM182 478q0 -16 10 -16q4 0 191 73t193 75q18 10 18 24q0 26 -70 81t-146 55q-90 0 -143 -78t-53 -214zM242 996q0 12 51 158t77 204q26 60 60 60q32 0 59 -58t83 -222q26 -74 40 -118q6 -18 6 -22 q0 -18 -11 -26t-21 -8q-24 0 -52 48q-82 146 -92 152q-4 2 -10 2q-14 0 -25 -16t-57 -94q-18 -30 -28 -48q-28 -44 -48 -44q-10 0 -21 8t-11 24z" />
<glyph unicode="&#xeb;" horiz-adv-x="836" d="M46 422q0 208 110 334t268 126q102 0 196 -56t156 -140q16 -20 16 -44v-4q0 -18 -10 -32t-32 -25t-38 -17t-47 -16t-39 -12q-418 -144 -428 -150q-8 -4 -8 -12q0 -12 6 -40t27 -74t52 -85t89 -68t130 -29q140 0 244 100q28 28 46 28q34 0 34 -30q0 -12 -16 -32 q-64 -84 -160 -133t-202 -49q-68 0 -133 24t-126 74t-98 144t-37 218zM182 478q0 -16 10 -16q4 0 191 73t193 75q18 10 18 24q0 26 -70 81t-146 55q-90 0 -143 -78t-53 -214zM194 1266q0 40 29 68t69 28q42 0 71 -27t29 -67q0 -42 -29 -70t-71 -28t-70 27t-28 69zM472 1266 q0 40 29 68t69 28q42 0 70 -27t28 -67q0 -42 -29 -70t-69 -28q-42 0 -70 27t-28 69z" />
<glyph unicode="&#xec;" horiz-adv-x="496" d="M30 1374q0 34 23 55t53 21h2q56 0 112 -86q64 -94 140 -208q76 -112 76 -130q0 -16 -12 -29t-28 -13h-4q-14 0 -29 13t-117 119q-94 94 -164 166q-52 52 -52 92zM176 754q0 6 3 12t10 10t13 7t16 7t14 6q224 108 226 108h2q28 0 28 -34l-2 -66q-4 -66 -7 -177t-3 -221 v-68q0 -190 6 -224t40 -38q60 -8 76 -14t16 -30q0 -44 -24 -44q-2 0 -12 1t-28 3t-40 4t-51 3t-57 1t-58 -1t-51 -3t-39 -4t-28 -3t-12 -1q-32 0 -32 34t13 40t89 16q36 6 45 23t9 51v96v194t1 141t1 61q0 22 -15 31t-123 53q-26 10 -26 26z" />
<glyph unicode="&#xed;" horiz-adv-x="496" d="M30 754q0 6 3 12t10 10t13 7t16 7t14 6q224 108 226 108h2q28 0 28 -34l-2 -66q-4 -66 -7 -177t-3 -221v-68q0 -190 6 -224t40 -38q60 -8 76 -14t16 -30q0 -44 -24 -44q-2 0 -12 1t-28 3t-40 4t-51 3t-57 1t-58 -1t-51 -3t-39 -4t-28 -3t-12 -1q-32 0 -32 34t13 40t89 16 q36 6 45 23t9 51v96v194t1 141t1 61q0 22 -15 31t-123 53q-26 10 -26 26zM48 1026q0 20 92 156q70 102 124 182q56 86 112 86q32 0 54 -21t22 -55q0 -40 -48 -92q-268 -274 -286 -288q-14 -10 -30 -10q-18 0 -29 13t-11 29z" />
<glyph unicode="&#xee;" horiz-adv-x="496" d="M30 754q0 6 3 12t10 10t13 7t16 7t14 6q224 108 226 108h2q28 0 28 -34l-2 -66q-4 -66 -7 -177t-3 -221v-68q0 -190 6 -224t40 -38q60 -8 76 -14t16 -30q0 -44 -24 -44q-2 0 -12 1t-28 3t-40 4t-51 3t-57 1t-58 -1t-51 -3t-39 -4t-28 -3t-12 -1q-32 0 -32 34t13 40t89 16 q36 6 45 23t9 51v96v194t1 141t1 61q0 22 -15 31t-123 53q-26 10 -26 26zM54 1016q0 12 51 158t77 204q26 60 60 60q32 0 59 -58t83 -222q26 -74 40 -118q6 -18 6 -22q0 -18 -11 -26t-21 -8q-24 0 -52 48q-82 146 -92 152q-4 2 -10 2q-14 0 -25 -16t-57 -94q-18 -30 -28 -48 q-28 -44 -48 -44q-10 0 -21 8t-11 24z" />
<glyph unicode="&#xef;" horiz-adv-x="496" d="M-10 1266q0 40 29 68t69 28q42 0 71 -27t29 -67q0 -42 -29 -70t-71 -28t-70 27t-28 69zM30 754q0 6 3 12t10 10t13 7t16 7t14 6q224 108 226 108h2q28 0 28 -34l-2 -66q-4 -66 -7 -177t-3 -221v-68q0 -190 6 -224t40 -38q60 -8 76 -14t16 -30q0 -44 -24 -44q-2 0 -12 1 t-28 3t-40 4t-51 3t-57 1t-58 -1t-51 -3t-39 -4t-28 -3t-12 -1q-32 0 -32 34t13 40t89 16q36 6 45 23t9 51v96v194t1 141t1 61q0 22 -15 31t-123 53q-26 10 -26 26zM268 1266q0 40 29 68t69 28q42 0 70 -27t28 -67q0 -42 -29 -70t-69 -28q-42 0 -70 27t-28 69z" />
<glyph unicode="&#xf1;" horiz-adv-x="1020" d="M22 24q0 28 13 35t67 15q36 6 45 22t9 48v488q0 36 -10 49t-82 67q-12 12 -12 20v2q0 10 14 19t86 47q56 30 94 50q12 8 20 8q24 0 24 -30v-80q0 -2 -2 -8v-4q0 -8 6 -8h2q2 0 15 12t37 30t56 36t78 31t96 13h4q42 0 83 -11t88 -40t79 -91t40 -152q4 -34 4 -104v-39 t-1 -111t-1 -204v-4q0 -10 2 -19t3 -14t7 -10t9 -7t14 -5t16 -3t22 -2t25 -4q30 -4 30 -38q0 -40 -32 -40q-6 0 -28 3t-61 6t-83 3q-26 0 -52 -1t-45 -3t-35 -4t-26 -4h-10q-28 0 -28 40q0 22 12 28t64 14q18 4 30 6q20 4 27 13t7 35v318q0 150 -28 222q-30 68 -90 95 t-114 27q-78 0 -140 -48t-70 -84q-4 -16 -4 -28v-484v-6q0 -52 46 -58q90 -14 98 -22q12 -10 12 -34q0 -36 -26 -36q-2 0 -13 1t-29 3t-40 5t-51 4t-57 1t-56 -1t-49 -3t-37 -4t-26 -3t-12 -1q-34 0 -34 36zM188 1180q0 6 36 60t56 74q48 48 104 48q46 0 114 -44t114 -44 q42 0 76 23t55 47t29 24t24 -8t16 -18q0 -12 -40 -60t-76 -74q-56 -44 -118 -44q-54 0 -118 46t-102 46q-40 0 -71 -27t-49 -54t-22 -27q-6 0 -17 12t-11 20z" />
<glyph unicode="&#xf2;" horiz-adv-x="956" d="M44 418q0 206 131 336t311 130q184 0 306 -131t122 -335q0 -210 -127 -333t-309 -123q-192 0 -313 132t-121 324zM112 1356q0 34 23 55t53 21h2q56 0 112 -86q64 -94 140 -208q76 -112 76 -130q0 -16 -12 -29t-28 -13h-4q-14 0 -29 13t-117 119q-94 94 -164 166 q-52 52 -52 92zM202 428q0 -160 78 -263t204 -103t208 103t82 245q0 160 -91 269t-211 109q-100 0 -185 -88t-85 -272z" />
<glyph unicode="&#xf3;" horiz-adv-x="956" d="M44 418q0 206 131 336t311 130q184 0 306 -131t122 -335q0 -210 -127 -333t-309 -123q-192 0 -313 132t-121 324zM202 428q0 -160 78 -263t204 -103t208 103t82 245q0 160 -91 269t-211 109q-100 0 -185 -88t-85 -272zM276 1008q0 20 92 156q70 102 124 182q56 86 112 86 q32 0 54 -21t22 -55q0 -40 -48 -92q-268 -274 -286 -288q-14 -10 -30 -10q-18 0 -29 13t-11 29z" />
<glyph unicode="&#xf4;" horiz-adv-x="956" d="M44 418q0 206 131 336t311 130q184 0 306 -131t122 -335q0 -210 -127 -333t-309 -123q-192 0 -313 132t-121 324zM202 428q0 -160 78 -263t204 -103t208 103t82 245q0 160 -91 269t-211 109q-100 0 -185 -88t-85 -272zM290 998q0 12 51 158t77 204q26 60 60 60 q32 0 59 -58t83 -222q26 -74 40 -118q6 -18 6 -22q0 -18 -11 -26t-21 -8q-24 0 -52 48q-82 146 -92 152q-4 2 -10 2q-14 0 -25 -16t-57 -94q-18 -30 -28 -48q-28 -44 -48 -44q-10 0 -21 8t-11 24z" />
<glyph unicode="&#xf5;" horiz-adv-x="956" d="M44 418q0 206 131 336t311 130q184 0 306 -131t122 -335q0 -210 -127 -333t-309 -123q-192 0 -313 132t-121 324zM164 1180q0 6 36 60t56 74q48 48 104 48q46 0 114 -44t114 -44q42 0 76 23t55 47t29 24t24 -8t16 -18q0 -12 -40 -60t-76 -74q-56 -44 -118 -44 q-54 0 -118 46t-102 46q-40 0 -71 -27t-49 -54t-22 -27q-6 0 -17 12t-11 20zM202 428q0 -160 78 -263t204 -103t208 103t82 245q0 160 -91 269t-211 109q-100 0 -185 -88t-85 -272z" />
<glyph unicode="&#xf6;" horiz-adv-x="956" d="M44 418q0 206 131 336t311 130q184 0 306 -131t122 -335q0 -210 -127 -333t-309 -123q-192 0 -313 132t-121 324zM202 428q0 -160 78 -263t204 -103t208 103t82 245q0 160 -91 269t-211 109q-100 0 -185 -88t-85 -272zM244 1266q0 40 29 68t69 28q42 0 71 -27t29 -67 q0 -42 -29 -70t-71 -28t-70 27t-28 69zM522 1266q0 40 29 68t69 28q42 0 70 -27t28 -67q0 -42 -29 -70t-69 -28q-42 0 -70 27t-28 69z" />
<glyph unicode="&#xf7;" horiz-adv-x="1434" d="M108 518v26q0 46 48 46h1130q42 0 42 -40v-28q0 -32 -14 -40t-40 -8h-1118q-48 0 -48 44zM584 820q0 44 32 75t78 31q44 0 75 -30t31 -74q0 -46 -32 -77t-76 -31q-46 0 -77 31t-31 75zM598 244q0 44 30 74t76 30t78 -31t32 -75t-31 -74t-77 -30q-44 0 -76 30t-32 76z" />
<glyph unicode="&#xf8;" horiz-adv-x="956" d="M44 418q0 206 131 336t311 130q82 0 174 -36q42 80 54 88q6 4 16 4q72 0 72 -34q0 -16 -56 -112q82 -64 125 -164t43 -212q0 -210 -127 -333t-309 -123q-90 0 -178 36l-7 -14t-8 -14t-7 -12t-7 -11t-8 -7t-10 -6t-11 -2q-72 0 -72 28q0 2 46 88q-78 60 -125 156t-47 214z M202 428q0 -162 78 -262l324 582q-62 40 -132 40q-100 0 -185 -88t-85 -272zM354 96q60 -34 130 -34q126 0 208 103t82 245q0 160 -92 270z" />
<glyph unicode="&#xf9;" horiz-adv-x="1034" d="M14 816v6q0 26 22 28q204 12 214 12q20 0 20 -24v-420q0 -134 38 -212q28 -54 85 -95t131 -41q100 0 174 74q4 6 11 13t9 10t6 7t5 7t3 7t2 7v9v504q0 44 -40 56q-10 4 -96 18q-30 6 -30 34q0 30 28 34q66 2 119 4t74 3t36 1h23q30 0 30 -40v-642q0 -6 1 -9t4 -6t7 -5 l12 -6t18 -8t26 -12t34 -16t18 -24q0 -22 -9 -30t-27 -11t-66 -20t-104 -49q-12 -8 -22 -8q-28 0 -28 40v48q0 8 -6 8q-2 0 -17 -11t-40 -26t-57 -30t-78 -26t-94 -11q-126 0 -210 78t-102 218q-6 60 -6 126q0 38 1 177t1 151q0 38 -56 58q-10 4 -31 10t-27 12t-6 22z M140 1356q0 34 23 55t53 21h2q56 0 112 -86q64 -94 140 -208q76 -112 76 -130q0 -16 -12 -29t-28 -13h-4q-14 0 -29 13t-117 119q-94 94 -164 166q-52 52 -52 92z" />
<glyph unicode="&#xfa;" horiz-adv-x="1034" d="M14 816v6q0 26 22 28q204 12 214 12q20 0 20 -24v-420q0 -134 38 -212q28 -54 85 -95t131 -41q100 0 174 74q4 6 11 13t9 10t6 7t5 7t3 7t2 7v9v504q0 44 -40 56q-10 4 -96 18q-30 6 -30 34q0 30 28 34q66 2 119 4t74 3t36 1h23q30 0 30 -40v-642q0 -6 1 -9t4 -6t7 -5 l12 -6t18 -8t26 -12t34 -16t18 -24q0 -22 -9 -30t-27 -11t-66 -20t-104 -49q-12 -8 -22 -8q-28 0 -28 40v48q0 8 -6 8q-2 0 -17 -11t-40 -26t-57 -30t-78 -26t-94 -11q-126 0 -210 78t-102 218q-6 60 -6 126q0 38 1 177t1 151q0 38 -56 58q-10 4 -31 10t-27 12t-6 22z M304 1008q0 20 92 156q70 102 124 182q56 86 112 86q32 0 54 -21t22 -55q0 -40 -48 -92q-268 -274 -286 -288q-14 -10 -30 -10q-18 0 -29 13t-11 29z" />
<glyph unicode="&#xfb;" horiz-adv-x="1034" d="M14 816v6q0 26 22 28q204 12 214 12q20 0 20 -24v-420q0 -134 38 -212q28 -54 85 -95t131 -41q100 0 174 74q4 6 11 13t9 10t6 7t5 7t3 7t2 7v9v504q0 44 -40 56q-10 4 -96 18q-30 6 -30 34q0 30 28 34q66 2 119 4t74 3t36 1h23q30 0 30 -40v-642q0 -6 1 -9t4 -6t7 -5 l12 -6t18 -8t26 -12t34 -16t18 -24q0 -22 -9 -30t-27 -11t-66 -20t-104 -49q-12 -8 -22 -8q-28 0 -28 40v48q0 8 -6 8q-2 0 -17 -11t-40 -26t-57 -30t-78 -26t-94 -11q-126 0 -210 78t-102 218q-6 60 -6 126q0 38 1 177t1 151q0 38 -56 58q-10 4 -31 10t-27 12t-6 22z M318 996q0 12 51 158t77 204q26 60 60 60q32 0 59 -58t83 -222q26 -74 40 -118q6 -18 6 -22q0 -18 -11 -26t-21 -8q-24 0 -52 48q-82 146 -92 152q-4 2 -10 2q-14 0 -25 -16t-57 -94q-18 -30 -28 -48q-28 -44 -48 -44q-10 0 -21 8t-11 24z" />
<glyph unicode="&#xfc;" horiz-adv-x="1034" d="M14 816v6q0 26 22 28q204 12 214 12q20 0 20 -24v-420q0 -134 38 -212q28 -54 85 -95t131 -41q100 0 174 74q4 6 11 13t9 10t6 7t5 7t3 7t2 7v9v504q0 44 -40 56q-10 4 -96 18q-30 6 -30 34q0 30 28 34q66 2 119 4t74 3t36 1h23q30 0 30 -40v-642q0 -6 1 -9t4 -6t7 -5 l12 -6t18 -8t26 -12t34 -16t18 -24q0 -22 -9 -30t-27 -11t-66 -20t-104 -49q-12 -8 -22 -8q-28 0 -28 40v48q0 8 -6 8q-2 0 -17 -11t-40 -26t-57 -30t-78 -26t-94 -11q-126 0 -210 78t-102 218q-6 60 -6 126q0 38 1 177t1 151q0 38 -56 58q-10 4 -31 10t-27 12t-6 22z M270 1266q0 40 29 68t69 28q42 0 71 -27t29 -67q0 -42 -29 -70t-71 -28t-70 27t-28 69zM548 1266q0 40 29 68t69 28q42 0 70 -27t28 -67q0 -42 -29 -70t-69 -28q-42 0 -70 27t-28 69z" />
<glyph unicode="&#xfd;" horiz-adv-x="958" d="M8 816q0 34 28 34q4 0 24 -1t57 -3t79 -2t79 2t58 3t25 1q28 0 28 -32q0 -8 -1 -13t-1 -9t-3 -7t-4 -6t-6 -4t-7 -2t-10 -2t-12 -2t-15 -2t-17 -1q-32 -4 -32 -28q0 -10 25 -77t80 -187t119 -240q0 -12 14 -12q6 0 10 4t6 9t4 7q168 402 168 482q0 12 -3 20t-7 13t-14 7 t-18 3t-26 1t-30 2q-38 4 -38 40t38 36q4 0 24 -1t57 -3t79 -2h2q42 0 77 2t55 3t24 1q24 0 24 -42q0 -22 -12 -27t-68 -11q-20 -2 -27 -14t-31 -76q-48 -136 -104 -272q-198 -484 -366 -738q-82 -126 -152 -126q-34 0 -57 22t-23 52q0 36 26 63t77 59t77 56q44 40 91 117 t47 117q0 52 -228 508q-94 184 -112 210q-12 18 -33 21t-33 10t-12 37zM276 1008q0 20 92 156q70 102 124 182q56 86 112 86q32 0 54 -21t22 -55q0 -40 -48 -92q-268 -274 -286 -288q-14 -10 -30 -10q-18 0 -29 13t-11 29z" />
<glyph unicode="&#xff;" horiz-adv-x="958" d="M8 816q0 34 28 34q4 0 24 -1t57 -3t79 -2t79 2t58 3t25 1q28 0 28 -32q0 -8 -1 -13t-1 -9t-3 -7t-4 -6t-6 -4t-7 -2t-10 -2t-12 -2t-15 -2t-17 -1q-32 -4 -32 -28q0 -10 25 -77t80 -187t119 -240q0 -12 14 -12q6 0 10 4t6 9t4 7q168 402 168 482q0 12 -3 20t-7 13t-14 7 t-18 3t-26 1t-30 2q-38 4 -38 40t38 36q4 0 24 -1t57 -3t79 -2h2q42 0 77 2t55 3t24 1q24 0 24 -42q0 -22 -12 -27t-68 -11q-20 -2 -27 -14t-31 -76q-48 -136 -104 -272q-198 -484 -366 -738q-82 -126 -152 -126q-34 0 -57 22t-23 52q0 36 26 63t77 59t77 56q44 40 91 117 t47 117q0 52 -228 508q-94 184 -112 210q-12 18 -33 21t-33 10t-12 37zM244 1266q0 40 29 68t69 28q42 0 71 -27t29 -67q0 -42 -29 -70t-71 -28t-70 27t-28 69zM522 1266q0 40 29 68t69 28q42 0 70 -27t28 -67q0 -42 -29 -70t-69 -28q-42 0 -70 27t-28 69z" />
<glyph unicode="&#x152;" horiz-adv-x="2084" d="M36 722q0 310 222 531t532 221q46 0 92 -4t73 -9t70 -14t59 -11q40 -8 92 -13t84 -7h32h624q32 0 42 -34l58 -258v-6q0 -20 -15 -31t-35 -11q-10 0 -17 2t-11 5t-8 8t-5 8t-4 9t-3 8l-88 150q-16 26 -26 33t-34 7h-398q-28 0 -46 -14t-18 -34v-338q0 -46 32 -46h322 q22 0 36 3t28 19t14 46v64q0 22 16 34t38 12q60 0 60 -60v-378q0 -58 -56 -58q-58 0 -58 44v110q0 46 -52 46h-230q-100 0 -126 -14t-26 -68v-476q0 -48 44 -67t210 -19q68 0 168 12t130 32q10 8 116 190q18 34 46 34q34 0 34 -46v-2q0 -10 -62 -292q-6 -26 -20 -33t-44 -7 h-570q-180 0 -344 -25t-192 -25q-322 0 -554 228t-232 544zM230 786q0 -184 63 -343t199 -266t322 -107q156 0 278 76q22 12 26 20t4 46v1018q-154 136 -362 136h-2q-98 0 -189 -35t-169 -102t-124 -182t-46 -261z" />
<glyph unicode="&#x153;" horiz-adv-x="1562" d="M44 418q0 206 131 336t311 130q106 0 201 -51t153 -143q48 84 129 138t187 54q102 0 196 -56t154 -140q18 -22 18 -44v-4q0 -18 -11 -32t-33 -25t-38 -17t-47 -16t-39 -12q-416 -144 -426 -150q-8 -4 -8 -12q0 -12 6 -40t26 -74t51 -85t89 -68t130 -29q140 0 244 100 q22 28 48 28q32 0 32 -30q0 -16 -14 -32q-64 -84 -160 -133t-202 -49q-110 0 -197 51t-135 135q-58 -88 -155 -137t-207 -49q-192 0 -313 132t-121 324zM202 428q0 -160 78 -263t204 -103t208 103t82 245q0 160 -91 269t-211 109q-100 0 -185 -88t-85 -272zM914 478 q0 -16 10 -16q2 0 190 73t192 75q20 10 20 24q0 26 -70 81t-146 55q-90 0 -143 -78t-53 -214z" />
<glyph unicode="&#x178;" horiz-adv-x="1366" d="M22 1366q0 18 13 32t39 14q6 0 35 -2t80 -4t111 -2t110 2t78 4t34 2q38 0 38 -42q0 -10 -1 -18t-4 -14t-6 -10t-11 -7t-13 -4t-18 -3t-22 -2t-27 -1t-32 -3q-54 -6 -54 -46v-4q0 -14 98 -182q104 -182 194 -336q18 -30 28 -30q4 0 16 12q296 408 324 454q36 64 36 86 q0 32 -18 41t-66 11h-14q-32 2 -48 4t-30 15t-14 37q0 14 11 28t33 14q4 0 28 -2t65 -4t89 -2h6q48 0 90 2t64 4t28 2q30 0 44 -13t14 -29q0 -20 -15 -33t-43 -33t-48 -46l-298 -384q-34 -46 -69 -93t-53 -72t-37 -49t-26 -36t-15 -23t-9 -21t-2 -17t-1 -21v-398 q0 -30 22 -37t122 -11q50 -2 80 -4q46 -2 46 -48v-18q0 -38 -34 -38l-42 4q-40 2 -109 5t-137 3q-44 0 -89 -1t-79 -3t-61 -4t-43 -3t-18 -1q-52 0 -52 58q0 8 1 15t2 12t6 8t8 5t12 4t16 3t20 1t26 1t32 1t37 2l8 2h11t8 1t9 2t8 3t7 6t4 8t4 10t1 14v424q0 18 -4 33t-6 21 t-15 28t-19 30q-188 302 -326 524q-46 72 -50 80q-20 26 -60 29t-50 25q-8 12 -8 28zM474 1588q0 40 29 68t69 28q42 0 71 -27t29 -67q0 -42 -29 -70t-71 -28t-70 27t-28 69zM752 1588q0 40 29 68t69 28q42 0 70 -27t28 -67q0 -42 -29 -70t-69 -28q-42 0 -70 27t-28 69z" />
<glyph unicode="&#x2c6;" horiz-adv-x="440" d="M32 1012q0 12 51 158t77 204q26 60 60 60q32 0 59 -58t83 -222q26 -74 40 -118q6 -18 6 -22q0 -18 -11 -26t-21 -8q-24 0 -52 48q-82 146 -92 152q-4 2 -10 2q-14 0 -25 -16t-57 -94q-18 -30 -28 -48q-28 -44 -48 -44q-10 0 -21 8t-11 24z" />
<glyph unicode="&#x2dc;" horiz-adv-x="688" d="M32 1180q0 6 36 60t56 74q48 48 104 48q46 0 114 -44t114 -44q42 0 76 23t55 47t29 24t24 -8t16 -18q0 -12 -40 -60t-76 -74q-56 -44 -118 -44q-54 0 -118 46t-102 46q-40 0 -71 -27t-49 -54t-22 -27q-6 0 -17 12t-11 20z" />
<glyph unicode="&#x2000;" horiz-adv-x="921" />
<glyph unicode="&#x2001;" horiz-adv-x="1842" />
<glyph unicode="&#x2002;" horiz-adv-x="921" />
<glyph unicode="&#x2003;" horiz-adv-x="1842" />
<glyph unicode="&#x2004;" horiz-adv-x="614" />
<glyph unicode="&#x2005;" horiz-adv-x="460" />
<glyph unicode="&#x2006;" horiz-adv-x="307" />
<glyph unicode="&#x2007;" horiz-adv-x="307" />
<glyph unicode="&#x2008;" horiz-adv-x="230" />
<glyph unicode="&#x2009;" horiz-adv-x="368" />
<glyph unicode="&#x200a;" horiz-adv-x="102" />
<glyph unicode="&#x2010;" d="M24 368v30q0 20 7 29t33 27q88 62 200 140q130 92 144 92q32 0 32 -80q0 -30 -36 -58q-46 -32 -89 -62t-72 -51t-55 -40t-42 -30t-30 -21l-21 -15t-14 -8t-11 -4t-8 -1q-38 0 -38 52z" />
<glyph unicode="&#x2011;" d="M24 368v30q0 20 7 29t33 27q88 62 200 140q130 92 144 92q32 0 32 -80q0 -30 -36 -58q-46 -32 -89 -62t-72 -51t-55 -40t-42 -30t-30 -21l-21 -15t-14 -8t-11 -4t-8 -1q-38 0 -38 52z" />
<glyph unicode="&#x2012;" d="M24 368v30q0 20 7 29t33 27q88 62 200 140q130 92 144 92q32 0 32 -80q0 -30 -36 -58q-46 -32 -89 -62t-72 -51t-55 -40t-42 -30t-30 -21l-21 -15t-14 -8t-11 -4t-8 -1q-38 0 -38 52z" />
<glyph unicode="&#x2013;" horiz-adv-x="1078" d="M56 512v8q0 50 28 50h914q28 0 28 -50v-4q0 -58 -28 -58h-914q-28 0 -28 54z" />
<glyph unicode="&#x2014;" horiz-adv-x="2186" d="M56 512v8q0 52 28 52h2022q28 0 28 -52v-4q0 -34 -6 -46t-22 -12h-2022q-28 0 -28 54z" />
<glyph unicode="&#x2018;" d="M80 1180q0 74 24 129t48 76t42 21q16 -2 28 -14t12 -26q0 -10 -37 -52t-37 -86q0 -30 20 -54t68 -24q6 0 18 2t18 2q54 0 79 -29t25 -61q0 -42 -36 -78t-96 -36q-66 0 -121 57t-55 173z" />
<glyph unicode="&#x2019;" d="M80 1286q0 44 35 79t93 35q66 0 123 -56t57 -172q0 -74 -24 -129t-50 -76t-44 -21q-16 0 -27 12t-11 28q0 10 37 52t37 86q0 28 -20 52t-68 24q-6 0 -19 -1t-19 -1q-54 0 -77 28t-23 60z" />
<glyph unicode="&#x201a;" d="M78 -4q0 44 35 79t95 35q66 0 122 -56t56 -172q0 -74 -24 -129t-49 -76t-43 -21q-16 0 -27 11t-11 27q0 10 36 53t36 87q0 28 -19 52t-69 24q-6 0 -18 -1t-18 -1q-54 0 -78 28t-24 60z" />
<glyph unicode="&#x201c;" horiz-adv-x="850" d="M78 1180q0 74 24 129t49 76t43 21q16 -2 28 -14t12 -26q0 -10 -37 -52t-37 -86q0 -78 88 -78q6 0 18 2t18 2q54 0 78 -29t24 -61q0 -44 -35 -79t-95 -35q-66 0 -122 57t-56 173zM466 1180q0 74 24 129t50 76t44 21q38 -4 38 -40q0 -10 -37 -52t-37 -86q0 -78 88 -78 q6 0 19 2t19 2q54 0 77 -29t23 -61q0 -44 -35 -79t-93 -35q-66 0 -123 57t-57 173z" />
<glyph unicode="&#x201d;" horiz-adv-x="850" d="M78 1286q0 42 35 78t95 36q66 0 122 -56t56 -172q0 -74 -24 -129t-49 -76t-43 -21h-2q-14 0 -25 13t-11 27q0 10 36 52t36 86q0 28 -19 52t-69 24q-6 0 -18 -1t-18 -1q-54 0 -78 28t-24 60zM466 1286q0 42 36 78t96 36q66 0 121 -56t55 -172q0 -74 -24 -129t-48 -76 t-42 -21h-2q-14 0 -26 13t-12 27q0 10 36 52t36 86q0 28 -19 52t-69 24q-6 0 -17 -1t-17 -1q-54 0 -79 28t-25 60z" />
<glyph unicode="&#x201e;" horiz-adv-x="850" d="M78 -4q0 44 35 79t95 35q66 0 122 -56t56 -172q0 -74 -24 -129t-49 -76t-43 -21q-16 0 -27 11t-11 27q0 10 36 53t36 87q0 28 -19 52t-69 24q-6 0 -18 -1t-18 -1q-54 0 -78 28t-24 60zM468 -4q0 44 35 79t95 35q66 0 122 -56t56 -172q0 -74 -24 -129t-49 -76t-43 -21 q-16 0 -27 11t-11 27q0 10 36 53t36 87q0 28 -19 52t-69 24q-6 0 -18 -1t-18 -1q-54 0 -78 28t-24 60z" />
<glyph unicode="&#x2022;" horiz-adv-x="584" d="M130 548q0 68 49 116t113 48q68 0 116 -50t48 -114q0 -68 -50 -115t-114 -47q-68 0 -115 49t-47 113z" />
<glyph unicode="&#x2026;" horiz-adv-x="1352" d="M110 88q0 52 36 85t86 33t86 -35t36 -85t-34 -85t-86 -35q-50 0 -87 35t-37 87zM554 88q0 52 36 85t86 33t86 -35t36 -85t-34 -85t-86 -35q-50 0 -87 35t-37 87zM998 88q0 52 36 85t86 33t86 -35t36 -85t-34 -85t-86 -35q-50 0 -87 35t-37 87z" />
<glyph unicode="&#x202f;" horiz-adv-x="368" />
<glyph unicode="&#x2039;" horiz-adv-x="456" d="M46 396q0 12 14 22q312 264 318 266q12 0 23 -13t11 -25q0 -8 -18 -30t-178 -204q-10 -10 -10 -14q0 -8 70 -88q68 -80 126 -148q8 -8 8 -16q0 -12 -11 -26t-23 -14q-8 0 -140 114q-102 88 -180 156q-10 10 -10 20z" />
<glyph unicode="&#x203a;" horiz-adv-x="456" d="M46 646q0 12 11 25t21 13t140 -112q102 -88 180 -154q14 -10 14 -22v-2q0 -10 -158 -144q-90 -78 -154 -134q-10 -10 -20 -10t-21 12t-11 26q0 10 8 18q194 228 194 234q0 8 -8 16l-188 212q-8 8 -8 22z" />
<glyph unicode="&#x205f;" horiz-adv-x="460" />
<glyph unicode="&#x20ac;" horiz-adv-x="1460" d="M40 706l52 126h172q40 140 121 244t177 159t184 80t166 25q152 0 272 -48t236 -158l-58 -128q-36 62 -152 136t-286 74q-98 0 -192 -33t-190 -123t-146 -228h894l-50 -126h-872q0 -4 -1 -20t-1 -28q0 -14 1 -31t1 -21h828l-54 -126h-746q44 -130 137 -221t192 -128 t195 -37q94 0 177 25t140 66t79 62t42 43l2 2l8 -2v-158q-200 -160 -440 -160q-72 0 -145 15t-152 52t-147 93t-127 145t-93 203h-214l50 126h144v100h-204z" />
<glyph unicode="&#x2122;" horiz-adv-x="1882" d="M86 1300l28 140q6 16 26 16h580q16 0 22 -15t18 -89q4 -24 6 -40l2 -4q2 -4 2 -6q0 -12 -8 -19t-16 -7q-10 0 -30 20q-8 14 -15 27t-11 21t-8 15t-7 11t-5 7t-6 4t-7 1h-9h-148q-16 0 -16 -22v-520q0 -14 12 -17t74 -7q20 -2 20 -34q0 -24 -20 -24q-4 0 -21 1t-47 3 t-64 2h-4q-36 0 -67 -2t-47 -3t-20 -1q-26 0 -26 30q0 28 62 30q10 2 16 2q28 4 28 32v504q0 26 -20 26h-152q-18 0 -24 -6t-24 -44l-20 -40q0 -6 -8 -14t-22 -8q-24 0 -24 30zM816 784q0 20 17 28t49 10h10q16 2 22 20q8 28 20 228q12 146 12 244q0 6 -11 24t-36 38t-55 20 q-24 0 -24 22q0 26 20 26h144q20 0 28 -14l188 -314q122 -196 132 -196q8 0 8 10l262 486q2 4 4 9t4 8l4 6t6 4t10 1h148q20 0 20 -26q0 -24 -51 -31t-51 -33q0 -98 4 -480v-12q0 -32 11 -39t47 -9h16q24 0 24 -30q0 -26 -24 -26q-4 0 -20 1t-44 3t-60 2h-4q-34 0 -63 -2 t-44 -3t-19 -1q-24 0 -24 28q0 10 4 16t17 9t20 4t27 3q24 2 31 13t7 35v212q0 162 -4 162q-16 -10 -102 -172q-164 -302 -180 -316q-4 -4 -14 -4h-4q-16 0 -35 38t-86 167t-169 283q0 4 -4 4q0 -2 -2 -81t-2 -127q0 -154 3 -182t17 -28q4 0 15 -1t16 -2t14 -2t14 -4t10 -7 t7 -9t2 -13q0 -26 -20 -26q-4 0 -20 1t-43 3t-57 2q-32 0 -60 -2t-43 -3t-19 -1q-20 0 -20 26z" />
<glyph unicode="&#xe000;" horiz-adv-x="850" d="M0 0v850h850v-850h-850z" />
<glyph unicode="&#xfb01;" horiz-adv-x="972" d="M36 38q0 20 13 26t57 12q18 2 28 4q6 0 11 2t8 6t5 6t3 8t1 8t1 10t1 10q8 104 8 586q0 14 -11 18t-49 4h-30q-44 0 -44 36q0 62 42 62h2q82 4 84 8t2 10v4q10 258 132 424q60 82 146 130t134 56t90 8q68 0 111 -29t43 -77q0 -36 -25 -59t-63 -23h-2q-34 0 -94 28t-98 28 q-64 0 -111 -46t-70 -118t-33 -123t-14 -97q-2 -20 -2 -62v-20q0 -24 3 -30t17 -6h260q48 2 90 8t65 10t29 4q46 0 46 -56q0 -2 -2 -26t-4 -64t-4 -90t-4 -118t-2 -134q0 -228 8 -268q4 -14 15 -18t61 -14q38 -6 38 -42q0 -44 -34 -44q-4 0 -25 3t-58 5t-81 2q-28 0 -56 -1 t-50 -3t-40 -4t-28 -3t-12 -1q-30 0 -30 34t13 40t87 16q56 8 56 74v94q0 118 1 220t1 161v71q0 18 -10 23t-46 9q-36 6 -76 6h-208q-18 0 -18 -18v-586v-8q0 -46 40 -48q16 -2 36 -3t29 -1t20 -1t16 -4t10 -7t6 -11t1 -17q0 -44 -34 -44q-2 0 -12 1t-27 3t-39 4t-50 3 t-56 1t-57 -1t-50 -3t-39 -4t-28 -3t-12 -1q-32 0 -32 50z" />
<glyph unicode="&#xfb02;" horiz-adv-x="942" d="M22 38q0 20 13 26t57 12q18 2 28 4q26 4 30 50q8 104 8 586q0 14 -10 18t-44 4h-28q-44 0 -44 36q0 62 44 62q72 4 76 8q2 4 2 10v16q0 224 72 370q48 92 141 163t219 71q34 0 66 -8t38 -8q14 0 36 11t30 11q28 0 28 -38v-1296q0 -12 1 -20t4 -15t4 -11t8 -8t10 -6t15 -5 t17 -4t22 -3t25 -4q36 -6 36 -42q0 -40 -26 -40h-12q-10 2 -28 4t-41 4t-53 3t-60 1q-28 0 -56 -1t-49 -2t-39 -3t-28 -2l-10 -2q-30 0 -30 42q0 26 14 33t70 13q26 2 39 15t15 26t2 37v986v18q0 144 -106 176q-18 8 -42 8q-60 0 -100 -46t-58 -124t-25 -145t-7 -141 q0 -30 4 -38t20 -8h166q44 0 44 -42v-2q0 -62 -52 -62h-160q-18 0 -18 -18v-586v-12q0 -42 40 -44q16 -2 35 -3t29 -1t21 -1t15 -4t9 -7t6 -11t1 -17q0 -44 -32 -44h-12q-10 2 -27 4t-39 4t-50 3t-56 1t-57 -1t-50 -3t-39 -4t-28 -3t-12 -1q-32 0 -32 50z" />
<glyph unicode="&#xfb03;" horiz-adv-x="1458" d="M16 34q0 16 6 24t14 10t30 5t40 7q28 6 30 32q8 50 8 304v300q0 22 -26 22h-38q-42 0 -42 38q0 66 42 66h44q16 0 16 18v2q0 136 45 265t141 209q124 108 278 108h2q58 0 95 -20t53 -40t18 -20t16 13t39 31t60 36t90 31t119 13q116 0 161 -34t45 -80q0 -38 -26 -61 t-64 -23t-108 39t-118 39q-38 0 -73 -18t-70 -62t-57 -136t-22 -222v-66q0 -22 20 -22h300q48 2 90 8t64 10t28 4q44 0 44 -56q0 -2 -1 -26t-3 -64t-5 -90t-4 -118t-1 -134q0 -252 6 -268q4 -14 15 -18t63 -14q38 -6 38 -42q0 -44 -34 -44q-4 0 -25 3t-59 5t-82 2 q-28 0 -57 -1t-50 -3t-39 -4t-28 -3t-12 -1q-28 0 -28 34t12 40t88 16q56 8 56 74l-2 6v88q0 118 1 220t2 161t1 71q0 18 -10 23t-46 9q-34 6 -70 6h-252q-18 0 -18 -24v-594q0 -28 16 -35t68 -11q24 0 38 -2q34 -2 34 -44q0 -36 -30 -36q-4 0 -29 3t-68 5t-95 2 q-28 0 -58 -1t-52 -2t-40 -3t-28 -3t-12 -1q-26 0 -26 32v13t2 10t3 8t6 5t7 4t10 4t13 3t18 3t21 4q6 2 15 3t13 2t11 5t9 12t5 22t4 35t1 51l2 510q0 22 -22 22h-286q-30 0 -30 -24v-592v-4q0 -38 38 -42q14 0 33 -1t27 -2t20 -3t16 -4t9 -7t7 -13t2 -18q0 -40 -24 -40 q-2 0 -12 1t-28 3t-39 4t-50 3t-57 1t-57 -1t-50 -3t-38 -4t-27 -3t-12 -1q-28 0 -28 46zM284 868q0 -26 24 -26h282q30 0 30 24v16q0 68 8 131t20 104t23 72t19 48t8 19q0 8 -8 8h-6q-32 0 -89 27t-97 27q-60 0 -104 -39t-67 -104t-33 -132t-10 -139v-36z" />
<glyph unicode="&#xfb04;" horiz-adv-x="1448" d="M18 776q0 66 42 66h86q14 0 14 34q2 46 6 90q34 254 182 374q62 52 144 78t146 26q24 0 46 -4t38 -11t29 -15t22 -16t15 -15t10 -11l4 -6h6l36 26q36 28 105 55t149 27q32 0 61 -8t35 -8h2q14 0 36 11t30 11q28 0 28 -38v-1278q0 -4 -1 -10t-1 -8q0 -12 1 -20t4 -15 t4 -11t8 -8t10 -6t15 -5t17 -4t22 -3t25 -4q36 -6 36 -42q0 -40 -26 -40q-2 0 -13 1t-29 3t-40 4t-52 3t-58 1t-56 -1t-50 -2t-39 -3t-27 -3t-12 -1q-30 0 -30 42q0 26 14 33t72 13q36 4 46 23t10 55v1006q0 68 -18 101t-60 57q-48 22 -78 22q-52 0 -90 -39t-58 -104 t-28 -131t-8 -138v-66q0 -22 22 -22h198q32 0 32 -30q0 -60 -30 -74q-6 -2 -20 -2h-182q-18 0 -18 -24v-594q0 -28 16 -35t70 -11q24 0 38 -2q32 -2 32 -44q0 -36 -28 -36q-6 0 -31 3t-68 5t-93 2q-30 0 -60 -1t-52 -2t-40 -3t-29 -3t-13 -1q-26 0 -26 32q0 28 12 37t52 15 q12 0 18 2t14 3t12 2t9 3t9 6t6 12q10 30 10 104l2 510q0 22 -24 22h-304q-26 0 -26 -24v-592v-4q0 -38 36 -42q14 0 33 -1t27 -2t20 -3t16 -4t9 -7t7 -13t2 -18q0 -40 -26 -40h-12q-10 2 -27 4t-39 4t-50 3t-56 1t-57 -1t-50 -3t-38 -4t-27 -3t-12 -1q-28 0 -28 46 q0 14 3 21t11 10t16 4t26 4t34 7q26 6 32 52t6 258v326q0 22 -24 22h-80q-42 0 -42 38zM306 868q0 -26 22 -26h298q32 0 32 24v16q0 68 8 131t19 104t22 72t19 48t8 19q0 8 -10 8h-6q-32 0 -92 28t-108 28q-156 0 -202 -274q-10 -60 -10 -142v-36z" />
</font>
</defs>
</svg>
